<svg width="106" height="190" viewBox="0 0 106 190" fill="none" xmlns="http://www.w3.org/2000/svg">
<g clip-path="url(#clip0_48_841)">
<path d="M6.23997 33.2201C2.22738 24.546 5.22454 15.3518 11.4973 9.3348C17.3769 3.71142 24.5505 1.47612 36.2443 0.9419C46.3822 0.477971 52.2946 2.55862 58.8949 5.62337C65.4788 8.70217 70.6542 14.3537 71.3913 20.7643C71.3257 18.5853 69.7207 16.6171 67.6735 15.3378C65.6262 14.0584 63.0221 12.2027 60.631 11.4998C56.0452 10.1642 52.0981 10.9234 48.2165 12.4558C43.2868 14.4099 41.1249 19.5975 41.4033 24.2508C41.5507 26.7954 41.78 30.9848 38.4225 33.8527C33.2635 38.253 29.8569 38.9138 25.0909 39.6448C21.6352 40.179 18.4579 41.2194 15.0021 40.2915C11.9559 39.4621 7.27178 35.4132 6.25635 33.2201H6.23997Z" fill="#CE6B3A"/>
<path d="M48.1837 12.4417C50.0672 11.6966 51.967 11.1343 53.9324 10.9094C53.7358 10.4876 53.4738 10.094 53.1135 9.7425C52.0162 8.66 50.231 8.22419 48.5604 8.39289C46.9063 8.56159 45.3667 9.26452 44.0565 10.1502C42.1239 11.4436 40.5516 13.1306 39.5198 15.0285C37.62 18.515 37.5709 22.5498 35.9167 26.1206C34.5901 28.9885 32.2317 31.4909 29.2509 33.2061C30.8559 29.4525 31.6748 25.4458 31.6584 21.4391C30.3646 25.3052 28.4648 29.0026 26.0244 32.4188C26.0081 30.0991 26.2046 27.7795 26.614 25.4739C25.6805 27.2453 24.4685 28.9182 23.0109 30.4084C23.6824 24.6163 23.8298 18.7821 23.4531 12.9619C22.8308 18.6977 20.9801 24.3352 18.0484 29.5087C17.3114 30.8021 16.4598 32.1095 15.0349 32.8546C13.8229 30.8302 13.1023 28.5808 12.9549 26.3034C12.398 28.0607 12.1687 29.9023 12.2506 31.7299C10.0396 26.5986 9.5319 20.933 10.8094 15.5627C7.76309 21.2001 7.61569 27.9482 10.4163 33.6841C7.59931 31.6877 5.50294 28.9745 4.422 25.98C4.53664 28.384 5.10987 30.8161 6.22357 33.2201C7.239 35.3992 11.9231 39.4621 14.9694 40.2915C18.4251 41.2334 21.6188 40.1791 25.0581 39.6448C29.8241 38.8997 33.2307 38.253 38.3898 33.8528C41.7472 30.9848 41.5179 26.7954 41.3705 24.2508C41.0921 19.5975 43.254 14.4099 48.1837 12.4558V12.4417Z" fill="#B54D24"/>
<path d="M34.9504 4.1613C35.2616 4.59712 35.8512 4.82205 36.4408 4.92046C37.0304 5.01887 37.6363 4.99075 38.226 5.0751C39.1759 5.20163 40.0767 5.55309 40.7973 6.11543C41.3705 6.55124 41.8127 7.12764 41.9437 7.77433C42.173 9.01147 41.1412 10.1643 40.0439 10.9937C37.7674 12.737 34.9504 13.9038 32.0842 14.8317C31.4946 15.0144 30.8723 15.2253 30.5283 15.6752C30.3318 15.9282 30.2499 16.2235 30.2008 16.5187C30.0861 17.2357 30.2008 18.0229 30.7576 18.5853C31.6912 19.5694 33.5091 19.5272 34.8685 19.007C36.2278 18.4869 37.3579 17.6012 38.7337 17.1091C39.0121 17.0107 39.3397 16.9264 39.6181 17.0248C39.7819 17.081 39.9129 17.2076 40.093 17.2357C40.3715 17.2778 40.6335 17.0951 40.83 16.9123C42.779 15.1691 44.728 13.4118 46.6933 11.6685C47.6269 10.8391 48.5932 9.92527 48.8388 8.78654C49.0681 7.6478 48.5113 6.48095 47.7906 5.51092C47.1847 4.68147 46.4313 3.90825 45.4814 3.35997C44.4496 2.78358 43.2376 2.48835 42.0256 2.33371C40.8955 2.19312 33.2798 1.78543 34.9831 4.18942L34.9504 4.1613Z" fill="#B54D24"/>
<path d="M70.2447 56.4869C70.1465 57.6959 70.1629 59.0595 71.1619 59.9171C71.4567 60.1702 71.8334 60.367 72.2428 60.4092C73.3238 60.5357 74.2573 59.6781 74.5357 58.7643C75.0762 57.0773 74.0772 55.3481 73.4221 53.6892C72.5049 51.4117 72.1937 49.0078 71.9972 46.6038C72.0954 47.9815 71.3584 49.4436 71.0636 50.7932C70.6706 52.677 70.3921 54.5749 70.2447 56.4728V56.4869Z" fill="#FA9D73"/>
<path d="M68.738 37.5501C68.6562 38.3796 68.6234 39.2372 68.8691 40.0525C69.1147 40.8679 69.7043 41.6271 70.5887 41.9926C71.4732 42.3581 72.636 42.2457 73.2583 41.599C73.5695 41.2756 73.7169 40.8679 73.8316 40.4602C74.5031 37.9438 73.8316 35.3008 72.9963 32.8265C72.1446 30.3382 71.1947 27.9201 70.9982 25.3333C70.4577 27.2031 70.4086 29.0869 70.0319 30.9989C69.6061 33.192 68.9837 35.357 68.738 37.5642V37.5501Z" fill="#FA9D73"/>
<path d="M35.7693 101.825C35.0487 94.276 32.8049 71.7684 31.5438 69.2098C30.3646 66.8198 27.3347 66.6652 25.1073 66.6792C23.404 66.6792 21.6188 66.7214 20.0137 67.2416V67.2697C18.4087 66.7495 16.6071 66.7214 14.9202 66.7074C12.6928 66.7074 9.66291 66.8479 8.4837 69.2379C7.22261 71.7965 4.97883 94.3041 4.25821 101.853C3.09537 113.972 2.27648 126.189 3.079 138.335C3.86514 150.496 6.30544 162.642 11.399 173.538C13.1186 177.221 15.1986 180.82 18.2777 183.28C18.8018 183.702 19.3914 184.095 20.0301 184.194V184.166C20.6689 184.067 21.2585 183.674 21.7826 183.252C24.8616 180.806 26.9416 177.193 28.6613 173.509C33.7384 162.614 36.1951 150.468 36.9813 138.307C37.7674 126.146 36.9485 113.944 35.802 101.825H35.7693Z" fill="#D8BCFD"/>
<path d="M31.5438 69.2098C30.3646 66.8198 27.3347 66.6652 25.1073 66.6792C23.404 66.6792 21.6188 66.7214 20.0138 67.2416V67.2697C18.4088 66.7495 16.6072 66.7214 14.9203 66.7074C12.6929 66.7074 9.66297 66.8479 8.48376 69.2379C7.97604 70.2782 7.30455 74.5941 6.63306 79.8661C9.17163 79.2756 11.7593 78.8117 14.3962 78.8257C17.9993 78.8398 21.7662 79.9082 24.0591 82.2982C25.6478 83.9711 26.3684 86.1221 26.9089 88.2449C28.6941 95.2882 28.8579 102.556 28.8906 109.768C28.9889 127.988 28.3993 146.306 24.3539 164.189C23.8626 166.368 23.2894 168.617 21.8154 170.445C20.3414 172.272 17.7537 173.622 15.2151 173.2C13.6756 172.947 12.3653 172.104 11.137 171.26C10.7767 171.007 10.4164 170.754 10.056 170.501C10.4819 171.527 10.9241 172.553 11.399 173.552C13.1187 177.235 15.1987 180.834 18.2777 183.294C18.8018 183.716 19.3914 184.11 20.0302 184.208V184.18C20.6689 184.081 21.2585 183.688 21.7826 183.266C24.8617 180.82 26.9417 177.207 28.6613 173.523C33.7385 162.628 36.1952 150.482 36.9813 138.321C37.7674 126.161 36.9485 113.958 35.7857 101.839C35.0651 94.29 32.8213 71.7825 31.5602 69.2238L31.5438 69.2098Z" fill="#C7A0FB"/>
<path d="M28.0881 39.4199C28.0881 39.4199 28.0389 37.4377 19.9974 37.4377C11.9559 37.4377 11.9067 39.4199 11.9067 39.4199L6.74768 78.7273C6.74768 78.7273 8.82767 76.4639 19.9974 76.239C31.5438 76.014 33.2471 78.7273 33.2471 78.7273L28.0881 39.4199Z" fill="#ACA7C1"/>
<path d="M22.8471 37.4939C23.535 37.8875 24.1082 38.4358 24.5177 39.0544C25.3202 40.2494 25.5822 41.6552 25.7951 43.0329C26.8106 49.7529 26.6468 56.5712 26.4994 63.3474C26.4666 64.6127 26.4339 65.906 25.8443 67.0729C24.4849 69.8002 20.6689 70.8968 17.2459 71.3326C13.8229 71.7684 10.0887 71.9512 7.4519 73.8772C9.02418 74.0178 10.5801 73.6382 12.1196 73.3148C13.6591 73.0056 15.2969 72.7525 16.8037 73.1602C18.3105 73.5679 19.6207 74.8332 19.375 76.1687C19.375 76.1687 19.375 76.1968 19.375 76.2109C19.5879 76.2109 19.7845 76.2109 19.9974 76.1968C31.5438 75.9719 33.2471 78.6852 33.2471 78.6852L28.0881 39.3777C28.0881 39.3777 28.0553 37.8875 22.8471 37.4939Z" fill="#9E9BB2"/>
<path opacity="0.17" d="M15.1987 38.6889C14.7565 39.0825 14.5108 39.6167 14.2979 40.1369C12.8566 43.7218 12.6109 47.5597 12.3817 51.3415C12.1032 56.0229 11.8084 60.6903 11.53 65.3718C11.4809 66.0888 11.5136 66.9464 12.2015 67.3681C12.873 67.7758 13.7902 67.5368 14.5435 67.2838C15.4279 66.9885 16.3779 66.6652 16.902 65.9763C17.2623 65.5124 17.3605 64.936 17.4424 64.3877C17.6226 63.0662 17.7208 61.7307 17.8027 60.3951C18.2449 53.7314 18.6871 47.0396 18.3923 40.3759C18.376 39.926 18.3432 39.4621 18.1303 39.0403C17.6062 38.0141 16.0503 37.9297 15.1987 38.7029V38.6889Z" fill="white"/>
<path d="M30.6267 67.1853C29.6768 66.7917 28.6286 66.5949 27.6131 66.3981C25.1237 65.9341 14.9203 65.9341 12.4308 66.3981C11.399 66.5808 10.3508 66.7917 9.4173 67.1853C6.79683 68.2819 5.17542 70.9389 5.66676 73.4132C5.76503 73.8912 6.09258 74.8894 6.79683 74.9878C7.37006 75.0721 8.43462 74.1161 8.99147 73.8772C12.3817 72.401 16.2141 71.8949 20.0302 71.8246C23.8462 71.8949 27.6787 72.401 31.0689 73.8772C31.6257 74.1161 32.6903 75.0721 33.2635 74.9878C33.9678 74.8894 34.2953 73.8912 34.3936 73.4132C34.8686 70.9389 33.2635 68.2819 30.6431 67.1853H30.6267Z" fill="#C3BFDB"/>
<path opacity="0.35" d="M6.64941 70.0955C6.43649 70.4047 6.25634 70.7281 6.23996 71.0795C6.22358 71.431 6.45287 71.8106 6.82956 71.9371C7.07523 72.0215 7.37003 71.9933 7.63208 71.9371C8.99144 71.6138 9.87585 70.5453 10.924 69.744C12.6437 68.4225 14.9366 67.7477 17.2295 67.4384C19.5224 67.1291 21.8481 67.1713 24.1574 67.0729C24.2884 67.0729 24.4194 67.0588 24.5013 66.9604C24.5832 66.862 24.5013 66.7074 24.403 66.6371C24.2884 66.5668 24.1246 66.5527 23.9772 66.5527C22.1101 66.4543 20.2267 66.5246 18.3432 66.5949C17.2295 66.6371 16.1158 66.6933 15.0185 66.7495C13.479 66.8339 11.3662 66.7777 10.0396 67.5509C8.7294 68.296 7.48468 68.8864 6.64941 70.0955Z" fill="white"/>
<path d="M35.409 2.36182C35.1633 2.53052 34.9012 2.71328 35.0159 3.06474C35.0978 3.30373 35.3107 3.47243 35.5891 3.55679C37.2433 4.07695 39.0776 4.1613 40.4861 5.21568C41.0266 5.62338 41.4033 6.19977 41.4688 6.81835C41.6326 8.53348 39.4871 9.47539 37.7674 10.2205C35.9494 11.0218 34.2461 12.02 32.723 13.2009C31.7403 13.96 30.8068 14.8317 30.6757 16.0126C30.6102 16.603 30.8231 17.2075 31.3145 17.6293C32.5756 18.6837 34.5409 17.8964 35.8512 16.9967C38.7009 15.0425 41.305 12.4136 44.9245 12.0059C44.859 12.1746 44.7771 12.3293 44.7116 12.498C44.3677 13.229 45.2521 13.9319 46.071 13.5805C46.1529 13.5383 46.2348 13.5102 46.333 13.468C51.2791 11.4014 57.2735 10.9656 62.2851 12.9057C67.2967 14.8457 71.0145 19.3585 70.7688 24.0681C73.2419 19.3304 72.1446 13.3696 68.0829 9.51757C65.2331 6.81835 61.7774 4.10507 57.8631 2.69922C51.3774 0.351458 41.8619 -1.84166 35.4253 2.34776L35.409 2.36182Z" fill="#FA9D73"/>
<path d="M70.9163 13.5383C70.9163 13.5383 70.8344 13.6367 70.7689 13.6929C70.1138 14.2974 68.9346 14.185 68.132 13.7492C67.3295 13.2993 66.789 12.5964 66.1503 11.9919C64.3815 10.3189 61.7774 9.4051 59.1733 9.19423C56.5529 8.98335 53.916 9.44728 51.443 10.2346C49.7888 10.7547 48.151 11.4436 46.3986 11.5842C46.808 11.3733 46.6606 10.7688 46.2512 10.5579C45.8417 10.347 45.3012 10.4173 44.8263 10.5017C42.0912 11.0218 39.5035 12.1043 37.3088 13.6086C35.8512 14.6208 34.5573 15.8298 32.8704 16.5327C32.2317 16.7998 31.4619 16.9686 30.774 16.9264C30.8887 17.1935 31.0525 17.4465 31.2981 17.6574C32.5592 18.7118 34.5246 17.9245 35.8348 17.0248C38.6846 15.0707 41.2887 12.4417 44.9082 12.034C44.8427 12.2027 44.7608 12.3574 44.6953 12.5261C44.3513 13.2571 45.2357 13.96 46.0546 13.6086C46.1365 13.5664 46.2184 13.5383 46.3167 13.4961C51.2628 11.4295 57.2571 10.9937 62.2687 12.9338C67.2804 14.8738 70.9982 19.3866 70.7525 24.0962C72.4722 20.7924 72.4558 16.8983 70.9327 13.5383H70.9163Z" fill="#EF390F"/>
<path d="M35.409 2.36183C35.1633 2.53053 34.9013 2.71329 35.0159 3.06475C35.0978 3.30374 35.3107 3.47244 35.5891 3.5568C37.2433 4.07696 39.0776 4.16131 40.4861 5.21569C41.0266 5.62339 41.4033 6.19978 41.4688 6.81836C41.5016 7.16982 41.436 7.49316 41.2886 7.78839C42.2713 7.49316 43.1066 7.01518 43.2704 6.17167C43.4833 5.07511 42.3041 4.10508 41.0594 3.79579C39.8146 3.4865 38.488 3.59897 37.2105 3.43027C36.8666 3.38809 36.5227 3.30374 36.2606 3.12098C35.9003 2.86793 35.7857 2.47429 35.8512 2.08066C35.7038 2.16501 35.5564 2.24936 35.4254 2.34777L35.409 2.36183Z" fill="#EF390F"/>
<path d="M17.2787 7.32444C14.1341 9.26451 11.1697 11.6544 9.77759 14.7614C11.0387 12.6948 13.3316 11.2608 15.5426 9.89714C13.004 11.8934 11.9558 14.9301 11.4481 17.8542C12.0869 16.111 13.1842 14.4802 14.6091 13.1165C13.0859 15.7033 13.1187 18.7399 13.1842 21.65C13.4626 18.9227 14.9366 16.364 16.9839 14.2693C19.0311 12.1746 21.5861 10.4876 24.2393 8.9974C21.7335 9.18016 19.8664 11.0078 17.639 12.034C19.2113 9.99555 21.5697 8.50535 23.8626 7.05733C21.5697 7.70402 19.4242 8.70217 17.5571 10.0096C19.3095 7.9149 21.7007 6.256 24.3375 5.0048C26.9744 3.75359 29.8405 2.92414 32.7394 2.2634C29.8405 2.29151 27.1709 2.67109 24.5505 3.71142C21.9955 4.72363 19.5552 5.94671 17.2623 7.35256L17.2787 7.32444Z" fill="#E87543"/>
<path d="M26.1882 18.8243C26.1063 17.3763 26.6959 15.9142 27.7769 14.8176C26.9252 16.6733 26.7614 18.768 27.2855 20.7081C27.3183 18.2338 28.1208 15.8017 29.3655 13.5805C30.6102 11.3592 32.2808 9.32076 34.066 7.39475C31.7567 8.50537 30.1353 10.4173 28.6449 12.2871C28.7923 11.1062 29.4474 10.0096 30.1516 8.98336C31.3472 7.24011 32.723 5.58121 34.2461 4.02072C33.9022 4.38624 32.9195 4.7377 32.4282 5.00481C32.0351 5.21569 31.642 5.37033 31.3145 5.63744C30.3809 6.41066 29.6439 7.45098 29.0216 8.40696C27.7113 10.4173 26.9088 12.6526 26.4994 14.9301C26.2701 16.2235 26.1718 17.5309 26.1882 18.8383V18.8243Z" fill="#E87543"/>
<path opacity="0.21" d="M31.8713 14.8598C31.7567 14.9723 31.642 15.0847 31.5929 15.2253C31.5438 15.3659 31.5929 15.5487 31.7403 15.6189C31.8222 15.6611 31.9368 15.6611 32.0351 15.6611C33.2798 15.5908 34.1478 14.6489 35.0159 13.8898C35.9167 13.1025 36.9485 12.4277 37.9803 11.7529C38.4061 11.4717 38.8319 11.1765 39.0448 10.7547C38.7173 10.586 38.2914 10.7266 37.9475 10.8812C35.6874 11.8653 33.6237 13.2712 31.8713 14.8598Z" fill="white"/>
<path opacity="0.21" d="M38.7992 3.03661C39.2742 3.03661 39.7164 2.89603 40.175 2.78356C43.3687 1.98223 46.7753 2.41804 50.0345 2.98038C54.2436 3.71142 58.5182 4.68145 62.0395 6.80428C62.4981 7.08545 63.0058 7.39473 63.5626 7.32444C63.4316 6.84645 62.9239 6.50905 62.4489 6.24194C57.7648 3.54272 52.3765 1.71512 46.808 0.95596C44.6134 0.660733 42.3369 0.520148 40.1586 0.927843C39.5362 1.04031 38.1114 1.22307 37.6855 1.70106C37.0632 2.37586 37.9967 3.05067 38.7829 3.05067L38.7992 3.03661Z" fill="white"/>
<path d="M70.9818 25.3193C70.7525 26.1206 70.6051 26.9219 70.4905 27.7233C70.9163 29.8602 71.9809 31.8986 72.161 34.0777C72.2265 34.8087 72.161 35.596 71.7188 36.2286C71.2602 36.8613 70.3103 37.269 69.5078 36.9878C69.2458 36.8894 69.0328 36.7488 68.8691 36.566C68.8199 36.8894 68.7708 37.2127 68.738 37.5501C68.6562 38.3796 68.6234 39.2371 68.8691 40.0525C69.1147 40.8679 69.7043 41.6271 70.5887 41.9926C71.4732 42.3581 72.636 42.2457 73.2583 41.599C73.5695 41.2756 73.7169 40.8679 73.8316 40.4602C74.5031 37.9438 73.8316 35.3008 72.9963 32.8265C72.1446 30.3381 71.1947 27.9201 70.9982 25.3333L70.9818 25.3193Z" fill="#EF390F"/>
<path d="M71.9972 46.6178C72.0627 47.5316 71.7516 48.4735 71.4731 49.4014C71.8826 51.482 72.9963 53.4221 73.2092 55.5309C73.2911 56.3181 73.1437 57.246 72.3412 57.6396C71.7024 57.9489 70.8835 57.7802 70.3103 57.4007C70.2775 57.3725 70.2448 57.3585 70.212 57.3304C70.212 58.2863 70.3922 59.2564 71.162 59.9171C71.4568 60.1702 71.8335 60.367 72.2429 60.4092C73.3238 60.5357 74.2574 59.6781 74.5358 58.7643C75.0763 57.0773 74.0772 55.3481 73.4221 53.6892C72.5049 51.4117 72.1938 49.0078 71.9972 46.6038V46.6178Z" fill="#EF390F"/>
<path opacity="0.26" d="M46.939 177.221C47.0536 177.516 47.3812 177.727 47.7415 177.811C48.7569 178.064 49.7724 177.502 50.7714 177.179C52.9005 176.476 55.2917 176.855 57.5191 177.277C59.2716 177.615 61.0076 177.98 62.7437 178.374C62.8747 177.544 61.7937 176.982 60.8766 176.701C58.3053 175.927 55.6029 175.506 52.8842 175.464C51.8851 175.45 46.2511 175.281 46.9554 177.221H46.939Z" fill="white"/>
<path opacity="0.26" d="M98.3656 180.047C97.9889 180.3 97.6941 180.637 97.3338 180.904C96.7606 181.312 96.0236 181.509 95.2866 181.649C92.879 182.141 90.406 182.24 87.9329 182.352C86.6227 182.408 85.3124 182.465 84.0022 182.521C89.4724 182.872 94.9918 182.605 100.364 181.706C103.607 181.171 100.462 178.669 98.3656 180.047Z" fill="white"/>
<path d="M16.9511 115.153C18.9492 116.502 21.8645 116.896 24.4195 116.784C26.958 116.671 29.513 115.321 30.3319 113.255C30.3974 115.097 30.119 116.924 29.775 118.738C29.4475 120.509 29.0708 122.309 28.0554 123.869C27.0399 125.43 25.2711 126.737 23.1911 126.906C21.2094 127.06 19.3096 126.175 17.7373 125.12C17.0494 124.656 16.3779 124.164 15.8047 123.602C14.6582 122.477 13.8721 121.1 13.217 119.708C11.4809 116.053 10.3672 111.99 10.3345 108.025C10.9077 109.543 15.3297 114.028 16.9675 115.125L16.9511 115.153Z" fill="#413E49"/>
<path d="M19.85 123.56C20.1612 122.688 21.0784 121.971 22.1265 121.859C23.1747 121.746 24.3212 122.294 24.6651 123.152C24.7142 122.421 24.7961 121.606 25.4513 121.156C26.3848 120.509 27.7933 121.029 28.6449 121.732C30.4138 123.222 31.1016 125.415 31.4128 127.524C31.6585 129.127 31.724 130.758 31.6421 132.374C31.5438 134.019 31.2327 135.748 30.0207 137.042C28.8087 138.321 26.4667 138.94 24.9108 137.956C23.9445 137.351 23.5023 136.283 23.3221 135.256C23.0273 133.612 23.2894 131.939 23.0928 130.294C22.9454 129.043 22.5032 127.707 21.5042 126.765C21.0947 126.385 20.4888 126.203 20.1448 125.823C19.6371 125.247 19.6371 124.22 19.8664 123.56H19.85Z" fill="#FF624D"/>
<path d="M29.0216 136.789C28.6122 137.028 28.1372 137.21 27.6459 137.21C26.9417 137.21 26.2702 136.845 25.8443 136.367C25.4185 135.875 25.2056 135.284 25.0418 134.694C24.5996 132.923 24.6979 131.095 24.4358 129.296C24.2557 128.143 23.9117 126.976 23.1911 125.978C22.4214 124.895 20.325 124.136 20.194 122.941C20.0466 123.138 19.9319 123.349 19.85 123.574C19.6044 124.22 19.6207 125.261 20.1284 125.837C20.4724 126.231 21.0784 126.414 21.4878 126.779C22.5032 127.721 22.9454 129.057 23.0765 130.308C23.2566 131.953 23.011 133.64 23.3058 135.27C23.4859 136.297 23.9281 137.351 24.8944 137.97C26.4503 138.94 28.7924 138.335 30.0043 137.056C30.8396 136.17 31.249 135.06 31.462 133.921C30.7905 135.003 30.1681 136.128 29.0216 136.817V136.789Z" fill="#FF4940"/>
<path d="M0.655146 84.4632C0.360343 84.7584 0.0819191 85.0677 2.96058e-05 85.4473C-0.0163483 85.5457 -0.0163483 85.6582 0.0327854 85.7566C0.212942 86.094 0.786169 86.0096 1.17924 85.855C3.60317 84.9552 5.96158 83.9149 8.22173 82.7481C9.36819 82.1576 10.531 81.4969 11.2516 80.5268C11.3172 80.4284 11.3827 80.33 11.3827 80.2175C11.3827 79.9645 11.0224 79.852 10.7276 79.8098C8.94236 79.599 6.94426 80.4144 5.40474 81.1454C3.60317 82.003 1.98176 83.1276 0.638768 84.4632H0.655146Z" fill="#413E49"/>
<path d="M40.6991 86.6423C41.3051 86.9375 41.9602 87.2187 42.6317 87.1343C42.4352 86.4736 41.8456 85.9675 41.256 85.5176C39.913 84.4492 38.4881 83.4651 36.9977 82.5653C35.8021 81.8343 34.3772 80.7799 32.8869 80.6112C32.3464 80.555 30.6267 80.4987 30.7905 81.2719C30.8888 81.7359 32.2317 82.2279 32.6412 82.4669C33.4601 82.9308 34.2954 83.3807 35.1143 83.8306C36.9486 84.8147 38.7993 85.7566 40.6827 86.6563L40.6991 86.6423Z" fill="#413E49"/>
<path d="M2.2929 89.9319C1.32661 92.0688 1.53952 94.5009 2.03086 96.7925C2.55495 99.2527 3.4066 101.755 5.2573 103.625C7.10801 105.495 10.1707 106.563 12.7256 105.635C14.0359 105.157 15.1004 104.215 15.821 103.119C16.5417 102.022 16.9511 100.771 17.2295 99.5198C17.7864 97.0033 17.8192 94.4025 17.3278 91.872C17.1149 90.8176 16.8201 89.7492 16.2141 88.8213C14.7729 86.572 11.743 85.5879 9.02422 86.1221C7.73037 86.3751 6.371 86.3892 5.19179 86.9656C3.89794 87.5982 2.86613 88.6948 2.30928 89.9319H2.2929Z" fill="#6F219E"/>
<path d="M2.63684 91.2534C1.7033 93.3341 1.93259 95.71 2.39117 97.9312C2.89889 100.321 3.71778 102.767 5.50297 104.581C7.28816 106.394 10.2362 107.449 12.6929 106.549C13.954 106.085 14.9694 105.171 15.6573 104.103C16.3451 103.034 16.7382 101.825 17.0003 100.602C17.5244 98.1561 17.5571 95.6256 17.0821 93.1654C16.8856 92.1391 16.5908 91.0988 16.0176 90.199C14.6255 88.0059 11.7102 87.0499 9.08973 87.5701C7.84501 87.8091 6.53478 87.8232 5.40471 88.3855C4.15999 89.0041 3.16093 90.0585 2.63684 91.2675V91.2534Z" fill="#FFF3E9"/>
<path d="M17.1477 93.1513C16.9512 92.1251 16.6564 91.0847 16.0831 90.185C15.5754 89.3696 14.8384 88.737 14.0031 88.273C14.1505 88.4558 14.2979 88.6386 14.429 88.8494C15.0022 89.7492 15.297 90.7895 15.4935 91.8158C15.9685 94.276 15.9357 96.8065 15.4116 99.2527C15.1496 100.476 14.7565 101.685 14.0687 102.753C13.3808 103.822 12.3654 104.735 11.1043 105.199C9.25355 105.874 7.1408 105.452 5.4375 104.426C5.48663 104.468 5.51939 104.525 5.56852 104.567C7.35371 106.394 10.3017 107.435 12.7584 106.535C14.0195 106.071 15.0349 105.157 15.7228 104.089C16.4107 103.02 16.8038 101.811 17.0658 100.588C17.5899 98.1421 17.6227 95.6116 17.1477 93.1513Z" fill="#FFE7C0"/>
<path d="M9.56475 97.172C9.20443 98.0858 9.23719 99.098 9.38459 100.068C9.58113 101.347 10.0233 102.669 11.0224 103.597C12.0214 104.525 13.692 104.946 14.8876 104.272C15.2806 104.061 15.5918 103.751 15.8702 103.428C17.1968 101.853 17.5572 99.6323 16.8038 97.7484C16.4435 96.8487 15.8047 95.9911 14.9039 95.4991C12.9877 94.4447 10.2854 95.2741 9.56475 97.172Z" fill="#413E49"/>
<path d="M10.5638 98.9012C10.5802 99.1683 10.6457 99.4636 10.8913 99.6041C11.0387 99.6885 11.2189 99.7026 11.3827 99.6885C11.9559 99.6323 12.4145 99.2246 12.742 98.7887C13.1515 98.2405 13.4627 97.6078 13.4954 96.9471C13.5609 95.9068 12.4472 95.3163 11.5137 95.963C10.6948 96.5253 10.4983 98.0577 10.5638 98.9012Z" fill="white"/>
<path opacity="0.3" d="M3.07902 96.6519C3.02989 98.0015 3.37382 99.3933 4.19272 100.546C4.29098 100.673 4.48752 100.827 4.61854 100.715C4.68405 100.659 4.68405 100.56 4.66768 100.476C4.29098 98.0155 3.8324 95.4569 4.73319 93.1091C4.81508 92.9123 4.91335 92.6593 4.73319 92.4906C3.94705 92.7717 3.73414 93.6996 3.50485 94.3322C3.2428 95.0914 3.07902 95.8787 3.04626 96.6659L3.07902 96.6519Z" fill="white"/>
<path d="M5.96161 90.9723C7.14082 90.5083 8.46743 90.424 9.76128 90.4661C11.0551 90.5083 12.3654 90.677 13.5773 91.0847C14.7893 91.4924 15.903 92.1391 16.6891 93.0248C16.5254 91.5908 15.4935 90.2834 14.1178 89.4399C12.7421 88.5964 11.0551 88.2027 9.38459 88.1324C8.54932 88.0903 7.69767 88.1324 6.89515 88.3293C5.32287 88.7088 3.97989 89.6789 3.14461 90.8738C2.76792 91.4081 2.4895 91.9845 2.30934 92.5749C2.1947 92.9264 1.78525 93.8824 2.16194 94.1916C2.50588 94.4728 2.83343 93.5731 3.01359 93.3341C3.35753 92.8701 3.76697 92.4203 4.22556 92.0266C4.73327 91.5908 5.32287 91.2253 5.97799 90.9723H5.96161Z" fill="#FFE7C0"/>
<path d="M3.5213 91.7455C4.65138 90.4521 5.91248 90.0866 7.25546 89.8898C7.79593 89.8054 8.35278 89.7773 8.89325 89.7773C10.6457 89.7632 12.3981 89.9601 14.0687 90.3959C15.166 90.6771 16.5909 91.6752 17.1968 92.589C16.902 91.872 16.3943 90.3959 16.0995 89.6789C15.9849 89.4118 15.8702 89.1447 15.6901 88.9057C15.4772 88.6526 15.166 88.4558 14.8712 88.2731C14.2324 87.8794 13.5773 87.4858 12.8403 87.2468C12.0869 87.0078 11.268 86.9516 10.4655 86.9375C8.41829 86.8953 6.25641 87.1203 4.60224 88.1465C3.45579 88.8494 2.6369 89.9038 2.19469 91.0426C1.818 92.0267 1.45769 94.3744 1.75249 95.4007C1.98178 95.3304 2.66965 92.7015 3.50493 91.7595L3.5213 91.7455Z" fill="#6F219E"/>
<path opacity="0.34" d="M3.65223 89.1025C2.81696 90.0022 2.35838 91.155 2.40751 92.2938C2.68594 91.2394 3.43932 90.2834 4.42199 89.5805C5.40467 88.8775 6.58388 88.4277 7.8286 88.1887C8.36907 88.0762 8.95867 88.0059 9.36812 87.6826C9.41725 87.6404 9.46639 87.5982 9.48276 87.542C9.51552 87.4014 9.30261 87.303 9.13883 87.2608C7.17348 86.8812 4.88057 87.7669 3.65223 89.0744V89.1025Z" fill="white"/>
<path d="M38.7992 89.9319C39.7655 92.0688 39.5526 94.5009 39.0613 96.7925C38.5372 99.2527 37.6855 101.755 35.8348 103.625C33.9841 105.495 30.9214 106.563 28.3665 105.635C27.0563 105.157 25.9917 104.215 25.2711 103.119C24.5504 102.022 24.141 100.771 23.8626 99.5198C23.3057 97.0033 23.273 94.4025 23.7643 91.872C23.9772 90.8176 24.272 89.7492 24.878 88.8213C26.3192 86.572 29.3492 85.5879 32.0679 86.1221C33.3617 86.3751 34.7211 86.3892 35.9003 86.9656C37.1942 87.5982 38.226 88.6948 38.7828 89.9319H38.7992Z" fill="#6F219E"/>
<path d="M38.4553 91.2534C39.3888 93.3341 39.1595 95.71 38.701 97.9312C38.1932 100.321 37.3743 102.767 35.5892 104.581C33.804 106.394 30.8559 107.449 28.3993 106.549C27.1382 106.085 26.1227 105.171 25.4349 104.103C24.747 103.034 24.3539 101.825 24.0919 100.602C23.5678 98.1561 23.535 95.6256 24.01 93.1654C24.2065 92.1391 24.5013 91.0988 25.0745 90.199C26.4667 88.0059 29.3819 87.0499 32.0024 87.5701C33.2471 87.8091 34.5573 87.8232 35.6874 88.3855C36.9321 89.0041 37.9312 90.0585 38.4553 91.2675V91.2534Z" fill="#FFF3E9"/>
<path d="M23.9444 93.1513C24.141 92.1251 24.4358 91.0847 25.009 90.185C25.5331 89.3696 26.2537 88.737 27.089 88.273C26.9416 88.4558 26.7942 88.6386 26.6632 88.8494C26.0899 89.7492 25.7951 90.7895 25.5986 91.8158C25.1236 94.276 25.1564 96.8065 25.6805 99.2527C25.9425 100.476 26.3356 101.685 27.0235 102.753C27.7113 103.822 28.7268 104.735 29.9879 105.199C31.8386 105.874 33.9513 105.452 35.6546 104.426C35.6055 104.468 35.5727 104.525 35.5236 104.567C33.7384 106.394 30.7904 107.435 28.3337 106.535C27.0726 106.071 26.0572 105.157 25.3693 104.089C24.6814 103.02 24.2884 101.811 24.0263 100.588C23.5022 98.1421 23.4695 95.6116 23.9444 93.1513Z" fill="#FFE7C0"/>
<path d="M31.5274 97.0596C31.8714 97.9734 31.855 98.9856 31.7076 99.9556C31.5111 101.235 31.0689 102.556 30.0698 103.484C29.0708 104.412 27.4002 104.834 26.2046 104.159C25.8115 103.948 25.5004 103.639 25.2219 103.316C23.8953 101.741 23.535 99.5198 24.2884 97.636C24.6487 96.7362 25.2875 95.8787 26.1882 95.3866C28.1045 94.3322 30.8068 95.1617 31.5274 97.0596Z" fill="#413E49"/>
<path d="M30.5284 98.7888C30.512 99.0559 30.4465 99.3511 30.2008 99.4917C30.0534 99.576 29.8733 99.5901 29.7095 99.576C29.1363 99.5198 28.6777 99.1121 28.3501 98.6763C27.9407 98.128 27.6295 97.4954 27.5968 96.8346C27.5312 95.7943 28.6449 95.2039 29.5785 95.8505C30.3974 96.4129 30.5939 97.9453 30.5284 98.7888Z" fill="white"/>
<path opacity="0.3" d="M38.0131 96.6519C38.0623 98.0015 37.7183 99.3933 36.8994 100.546C36.8012 100.673 36.6046 100.827 36.4736 100.715C36.4081 100.659 36.4081 100.56 36.4245 100.476C36.8012 98.0155 37.2597 95.4569 36.359 93.1091C36.2771 92.9123 36.1788 92.6593 36.359 92.4906C37.1451 92.7717 37.358 93.6996 37.5873 94.3322C37.8493 95.0914 38.0131 95.8787 38.0459 96.6659L38.0131 96.6519Z" fill="white"/>
<path d="M35.1306 90.9723C33.9514 90.5083 32.6248 90.424 31.3309 90.4661C30.0371 90.5083 28.7268 90.677 27.5149 91.0847C26.3029 91.4924 25.1892 92.1391 24.4031 93.0248C24.5669 91.5908 25.5987 90.2834 26.9744 89.4399C28.3501 88.5964 30.0371 88.2027 31.7076 88.1324C32.5429 88.0903 33.3945 88.1324 34.1971 88.3293C35.7693 88.7088 37.1123 89.6789 37.9476 90.8738C38.3243 91.4081 38.6027 91.9845 38.7829 92.5749C38.8975 92.9264 39.307 93.8824 38.9303 94.1916C38.5863 94.4728 38.2588 93.5731 38.0786 93.3341C37.7347 92.8701 37.3252 92.4203 36.8667 92.0266C36.3589 91.5908 35.7693 91.2253 35.1142 90.9723H35.1306Z" fill="#FFE7C0"/>
<path d="M37.5708 91.7455C36.4407 90.4521 35.1796 90.0866 33.8366 89.8898C33.2962 89.8054 32.7393 89.7773 32.1989 89.7773C30.4464 89.7632 28.694 89.9601 27.0234 90.3959C25.9261 90.6771 24.5012 91.6752 23.8953 92.589C24.1901 91.872 24.6978 90.3959 24.9926 89.6789C25.1072 89.4118 25.2219 89.1447 25.402 88.9057C25.6149 88.6526 25.9261 88.4558 26.2209 88.2731C26.8597 87.8794 27.5148 87.4858 28.2518 87.2468C29.0052 87.0078 29.8241 86.9516 30.6266 86.9375C32.6738 86.8953 34.8357 87.1203 36.4899 88.1465C37.6363 88.8494 38.4552 89.9038 38.8974 91.0426C39.2741 92.0267 39.6344 94.3744 39.3396 95.4007C39.1103 95.3304 38.4225 92.7015 37.5872 91.7595L37.5708 91.7455Z" fill="#6F219E"/>
<path opacity="0.34" d="M37.4399 89.1025C38.2751 90.0022 38.7337 91.155 38.6846 92.2938C38.3898 91.2394 37.6528 90.2834 36.6701 89.5805C35.6874 88.8775 34.5082 88.4277 33.2635 88.1887C32.723 88.0762 32.1334 88.0059 31.724 87.6826C31.6748 87.6404 31.6257 87.5982 31.6093 87.542C31.5766 87.4014 31.7895 87.303 31.9533 87.2608C33.9186 86.8812 36.2115 87.7669 37.4399 89.0744V89.1025Z" fill="white"/>
</g>
<defs>
<clipPath id="clip0_48_841">
<rect width="105.556" height="190" fill="white"/>
</clipPath>
</defs>
</svg>
