<svg xmlns="http://www.w3.org/2000/svg" width="134" height="165" viewBox="0 0 134 165" fill="none">
  <g clip-path="url(#clip0_48_779)">
    <path d="M25.5444 77.7671C24.7269 83.7161 20.2482 70.546 19.9417 71.2569C17.6257 95.1838 17.83 117.764 24.2842 140.587C25.6125 145.264 27.2984 150.034 30.517 153.439C33.8718 156.993 38.4697 158.677 42.9485 160.08C51.5654 162.793 62.3791 164.645 71.3025 164.981C79.2723 165.281 90.9715 143.056 91.3291 141.017C91.7038 138.884 90.8864 136.733 90.1711 134.713C86.1351 123.339 84.7217 111.085 83.8362 98.9065C82.8995 86.0919 65.819 91.2365 65.819 91.2365C65.819 91.2365 26.498 70.6395 25.5273 77.7297L25.5444 77.7671Z" fill="#F6AD69"/>
    <path d="M81.997 61.7159C63.8606 54.9812 83.8021 87.8316 64.661 87.6819C63.5541 87.6819 21.0827 70.602 19.9757 70.7516C19.5841 73.4455 19.7884 70.8077 19.1924 79.9931C22.2066 81.4336 25.5273 82.2941 28.7118 83.2856C38.8444 86.4472 48.466 91.4047 58.7007 94.1547C61.2551 94.8469 63.8777 95.3894 66.4832 94.9965C69.0035 94.6037 71.3366 93.3503 73.6015 92.1156C77.0925 90.2261 80.5835 88.318 83.9213 86.1292C84.5173 78.7958 80.6176 73.4268 82.6952 66.3554C80.8049 65.1581 84.0746 62.4829 82.014 61.7159H81.997Z" fill="#FFBF9F"/>
    <path d="M103.658 25.835C105.123 22.6922 106.775 18.9881 105.344 15.8265C104.357 13.6751 102.211 12.5153 100.184 11.5799C93.2704 8.41834 75.679 2.99317 68.3052 1.5527C62.6004 0.448955 54.9371 -1.4405 49.5558 1.72106C46.9162 3.27379 44.7365 5.63093 42.6248 7.96936C36.4772 14.7976 30.4147 22.0374 26.9066 30.8299C24.2841 37.3775 23.1772 44.5238 22.2065 51.6139C21.2869 58.3673 20.4695 65.1581 19.8564 71.9864C21.5424 72.6598 23.3134 73.3146 25.1356 74.0068C36.3239 78.3656 47.5974 82.4626 58.939 86.3163C61.3402 87.1394 63.8265 87.9439 66.3469 87.7007C69.327 87.4201 72.0177 85.6803 74.5891 83.9779C78.0972 81.6581 81.6052 79.3571 85.1133 77C88.2637 59.2466 96.0462 42.2976 103.675 25.7976L103.658 25.835Z" fill="#438342"/>
    <path d="M91.329 141.036C91.7036 138.903 90.8862 136.752 90.171 134.731C86.135 123.357 84.7215 111.104 83.836 98.9253C83.2911 91.4797 83.836 84.2025 85.0962 77.0375C88.2466 59.2841 64.15 74.512 64.6608 87.6821C64.9503 95.0341 65.5634 102.386 66.2105 109.682C67.7772 127.192 69.5313 144.796 74.2655 161.595C74.4698 162.344 74.6912 163.092 74.9296 163.84C82.4055 159.276 91.0054 142.776 91.3119 141.036H91.329Z" fill="#FFCEB6"/>
    <path d="M70.7234 76.177C69.0375 86.2042 64.2522 77.3742 64.6609 87.6634C64.7631 90.1889 64.8993 92.7331 65.0696 95.2586C65.5464 95.2586 66.0062 95.2025 66.483 95.1276C69.0034 94.7348 71.3364 93.4814 73.6013 92.2467C77.0924 90.3572 80.5834 88.4491 83.9212 86.2603C83.9212 86.2603 83.9212 86.2229 83.9212 86.2042C84.0745 84.3896 84.2788 82.5936 84.5172 80.7977C84.5172 80.7977 84.5172 80.7603 84.5172 80.7416C84.5853 80.3113 84.6364 79.8998 84.7045 79.4695C84.7045 79.4321 84.7045 79.3946 84.7216 79.3572C84.7897 78.9457 84.8578 78.5341 84.9259 78.1225C84.9259 78.0851 84.9259 78.0664 84.9259 78.029C84.977 77.6923 85.0451 77.3555 85.0962 77.0188C85.4368 75.1293 81.1965 78.3096 81.6222 76.4389C81.6222 76.4015 82.3204 73.7824 82.3375 73.7637C82.4396 73.3521 82.5759 72.6413 82.661 72.2297C82.661 72.1923 81.4179 71.7433 81.4349 71.7059C81.8777 69.9287 78.7953 72.2671 79.3062 70.5086C77.4159 69.3113 84.0404 62.5953 81.9628 61.8283C76.7688 59.9015 76.0366 77.4304 70.6893 76.1583L70.7234 76.177Z" fill="#E98427"/>
    <path d="M74.5891 84.0154C78.0972 81.6957 81.6053 79.3946 85.1133 77.0375C85.1133 77.0375 85.1133 77.0188 85.1133 77.0001C88.2808 59.2654 96.0462 42.3164 103.675 25.8351C104.442 24.1701 105.276 22.3368 105.668 20.5222C106.008 18.9133 106.025 17.3232 105.344 15.8266C104.748 14.5171 103.709 13.563 102.534 12.8147C102.739 14.012 102.705 15.2654 102.296 16.631C101.308 19.9048 98.8902 22.4116 96.4039 24.5069C92.0613 28.1361 87.1909 30.9984 82.048 32.944C79.4255 33.9354 76.6838 34.7212 74.4359 36.4797C70.8597 39.2858 69.1227 44.0936 67.9306 48.7331C64.678 61.3793 64.1501 74.5307 64.678 87.7382C65.24 87.7756 65.7849 87.7756 66.3469 87.7382C69.327 87.4576 72.0177 85.7178 74.5891 84.0154Z" fill="#75C973"/>
    <path opacity="0.17" d="M58.8198 30.5492C62.3959 31.3724 66.0403 32.102 69.6846 31.8962C74.2995 31.653 78.7442 29.988 83.0356 28.0986C87.9742 25.9472 92.8616 23.4778 96.9828 19.8111C97.8853 19.0254 98.7538 18.1462 99.2306 16.9863C99.7075 15.8452 99.7075 14.3673 98.9241 13.4319C98.9071 14.9659 98.1237 16.3877 97.0849 17.3979C96.0461 18.4081 94.7689 19.0815 93.4917 19.6615C88.1956 22.0935 82.5248 23.3843 76.854 24.3571C66.0062 26.1904 54.5965 26.7703 44.3958 22.3179C42.0968 21.3264 39.8319 20.0543 37.3797 19.7924C36.6474 19.7176 35.8811 19.7363 35.251 20.1479C32.6285 21.8128 36.7326 23.1224 37.8225 23.6462C40.0363 24.6938 42.3182 25.6292 44.6172 26.471C49.2662 28.1547 54.0175 29.4455 58.8027 30.5492H58.8198Z" fill="white"/>
    <path d="M21.3892 25.648C21.3551 25.8351 21.3381 26.0409 21.3892 26.2279C21.5935 26.8453 22.3769 26.8079 22.9559 26.6582C25.919 25.9099 28.9503 25.4235 31.9985 25.2365C33.8036 25.1242 35.6428 25.1055 37.3798 24.5256C37.7034 24.4133 38.061 24.2262 38.1121 23.8708C38.1802 23.3844 37.6523 23.0851 37.2095 22.9541C34.1102 22.0562 30.8576 21.9252 27.7071 22.5052C25.7317 22.8793 21.9511 22.8793 21.3721 25.648H21.3892Z" fill="#413E49"/>
    <path d="M78.9997 41.5494C78.9486 41.7364 78.8805 41.9235 78.7443 42.0545C78.3015 42.5034 77.6203 42.0545 77.1776 41.6242C74.8956 39.4167 72.4263 37.415 69.8208 35.6752C68.2711 34.6276 66.6533 33.6735 65.3761 32.2517C65.1377 31.9898 64.8993 31.6344 65.0185 31.2977C65.1718 30.83 65.7678 30.8487 66.1936 30.9609C69.2929 31.7841 72.239 33.3555 74.7594 35.5069C76.3431 36.8725 79.6809 38.8181 78.9827 41.5681L78.9997 41.5494Z" fill="#413E49"/>
    <path d="M31.7431 105.435C33.2587 108.054 35.3874 110.543 38.1632 111.122C41.7564 111.871 45.3326 109.102 47.0696 105.585C48.8066 102.049 49.1302 97.915 49.4026 93.9303C48.8918 95.2024 47.7338 96.4371 46.4565 97.1293C42.9314 99.0374 31.096 99.3554 25.3911 87.7007C25.5784 88.5238 29.1376 100.927 31.7261 105.454L31.7431 105.435Z" fill="#413E49"/>
    <path d="M20.6229 37.1343C19.0732 40.2959 18.9029 44.1122 19.0562 47.7228C19.2264 51.6326 19.8054 55.6734 21.6787 58.8911C23.5519 62.1088 27.0259 64.2976 30.2615 63.3061C31.9134 62.801 33.3609 61.5102 34.4167 59.92C35.4896 58.3486 36.2048 56.4779 36.7668 54.5697C37.8737 50.7721 38.3846 46.7313 38.2654 42.7279C38.2143 41.0442 38.044 39.3605 37.499 37.8078C36.1707 34.0663 32.7138 32.0272 29.359 32.3826C27.7752 32.551 26.1404 32.3265 24.6248 33.0374C22.9559 33.8044 21.5254 35.3197 20.6229 37.1343Z" fill="#FFF3E9"/>
    <path d="M38.3335 42.7464C38.2824 41.0627 38.1121 39.379 37.5672 37.8263C37.0733 36.4419 36.29 35.3008 35.3363 34.4028C35.4896 34.7209 35.6429 35.0389 35.7621 35.3943C36.307 36.9471 36.4773 38.6307 36.5284 40.3144C36.6646 44.3178 36.1537 48.3586 35.0298 52.1562C34.4678 54.0644 33.7526 55.9164 32.6797 57.5066C31.6069 59.078 30.1764 60.3688 28.5246 60.8926C26.0893 61.6409 23.5349 60.5933 21.6106 58.6477C21.6617 58.7226 21.6957 58.8161 21.7468 58.8909C23.6201 62.1086 27.0941 64.2974 30.3297 63.3059C31.9815 62.8008 33.429 61.51 34.4849 59.9198C35.5577 58.3484 36.273 56.4777 36.8349 54.5695C37.9418 50.7719 38.4527 46.7311 38.3335 42.7277V42.7464Z" fill="#FFE7C0"/>
    <path d="M19.022 44.5236C24.2331 40.3518 29.5803 41.0627 33.9569 43.9998C35.5406 45.0661 36.6645 47.1801 37.499 48.4709C37.6693 47.2175 37.9758 42.9709 37.4479 41.8297C36.9881 40.8382 36.0685 40.1835 35.1319 39.7345C33.3949 38.9114 31.4706 38.6495 29.5803 38.612C27.69 38.5746 25.7827 38.7617 23.9436 39.2668C23.024 39.51 22.1214 39.8467 21.2529 40.2583C20.5547 40.595 19.4137 41.0066 19.005 41.7549C18.8347 42.0542 18.8858 42.3723 18.9199 42.709C18.971 43.3076 18.988 43.925 19.022 44.5236Z" fill="#FFE7C0"/>
    <path d="M22.8708 43.8315C22.2578 45.2346 22.1045 46.8434 22.1045 48.4149C22.1045 50.4914 22.411 52.6802 23.4839 54.3264C24.5567 55.9914 26.5492 56.9455 28.184 56.1036C28.7119 55.8417 29.1547 55.4115 29.5634 54.9251C31.5047 52.6427 32.3733 49.1819 31.7943 46.039C31.5048 44.5237 30.8917 43.0645 29.8529 42.1104C27.6561 40.1087 24.148 40.9319 22.8878 43.8315H22.8708Z" fill="#413E49"/>
    <path d="M23.7904 46.7686C23.7564 47.1988 23.7904 47.6852 24.0629 47.9658C24.2162 48.1342 24.4376 48.1903 24.6589 48.1903C25.3912 48.1903 26.0383 47.6291 26.5322 46.993C27.1452 46.2073 27.6391 45.2345 27.8264 44.1869C28.0989 42.5407 26.8387 41.3995 25.5445 42.2601C24.4205 43.0084 23.8926 45.4216 23.8075 46.7686H23.7904Z" fill="white"/>
    <path d="M19.6692 38.0135C20.708 35.7686 22.3088 33.7482 24.3353 32.5135C26.0723 31.4659 28.0648 30.9795 30.0572 30.9046C31.9134 30.8298 33.8377 31.1104 35.3704 32.1955C36.903 33.2618 37.9078 35.0577 38.4357 36.9285C38.9636 38.8179 39.0317 40.8196 39.0147 42.7839C38.9977 44.2618 38.9806 44.5237 38.8955 45.9829C37.1074 44.4302 35.9835 41.7924 30.9257 39.8655C26.1404 38.0322 19.3627 38.6308 18.375 45.9829C18.5453 45.3655 18.358 43.158 18.4942 42.4472C18.7837 40.8944 19.0051 39.4166 19.6692 37.9948V38.0135Z" fill="#75C973"/>
    <path d="M38.4527 36.9846C37.9248 35.0952 36.9201 33.318 35.3874 32.2329C34.6552 31.7091 33.8207 31.3911 32.9692 31.1853C34.3316 32.2703 35.2512 33.9353 35.745 35.6938C36.273 37.5833 36.3411 39.585 36.324 41.5492C36.307 42.9523 36.3581 41.9608 36.29 43.2703C37.2096 43.9438 38.1292 45.3656 38.9295 46.0578C39.0147 44.5986 39.0147 44.318 39.0488 42.8588C39.0828 40.8758 38.9977 38.8741 38.4698 37.0033L38.4527 36.9846Z" fill="#DBECDE"/>
    <path opacity="0.3" d="M22.5131 35.2261C21.1507 36.5543 20.146 38.2193 19.8054 40.0339C19.7713 40.2397 19.8054 40.539 20.0438 40.539C20.163 40.539 20.2481 40.4268 20.3163 40.3333C22.3428 37.5458 24.3863 34.6088 27.5197 32.9064C27.7752 32.7567 28.1157 32.5884 28.1328 32.289C27.128 31.971 26.0041 32.7567 25.1867 33.2244C24.199 33.7856 23.2964 34.4591 22.496 35.2261H22.5131Z" fill="white"/>
    <path d="M48.1424 43.1395C45.9797 46.114 45.1112 50.0613 44.6514 53.8776C44.1405 57.9933 44.0383 62.3334 45.4348 66.0936C46.8312 69.8538 50.0838 72.8844 53.6259 72.529C55.4481 72.3419 57.1681 71.313 58.5645 69.8725C59.9609 68.4508 61.0337 66.6548 61.9533 64.7841C63.7925 61.0426 65.0357 56.9457 65.5976 52.7178C65.836 50.9593 65.9553 49.1446 65.6487 47.4048C64.9165 43.2144 61.6638 40.3334 58.1047 40.0154C56.4188 39.8657 54.7499 39.2858 53.0299 39.6786C51.1567 40.1276 49.3856 41.3997 48.1424 43.1208V43.1395Z" fill="#FFF3E9"/>
    <path d="M65.6657 52.7551C65.9041 50.9966 66.0233 49.182 65.7168 47.4422C65.4443 45.8895 64.8312 44.5238 63.9798 43.4014C64.0819 43.7755 64.1841 44.131 64.2522 44.5238C64.5588 46.2636 64.4396 48.0595 64.2011 49.8367C63.6392 54.0459 62.396 58.1616 60.5568 61.9031C59.6373 63.7738 58.5644 65.5697 57.168 66.9915C55.7716 68.4133 54.0516 69.4609 52.2294 69.648C49.5558 69.9099 47.0695 68.2823 45.4006 65.8503C45.4347 65.9439 45.4688 66.0374 45.5028 66.131C46.8992 69.8912 50.1518 72.9218 53.694 72.5663C55.5161 72.3793 57.2361 71.3503 58.6325 69.9099C60.0289 68.4881 61.1018 66.6922 62.0214 64.8214C63.8606 61.0799 65.1037 56.983 65.6657 52.7551Z" fill="#FFE7C0"/>
    <path d="M45.1792 50.529C51.3609 47.2739 56.8273 49.1447 60.8633 53.1481C62.3279 54.5885 63.1282 57.0392 63.7754 58.5545C64.1841 57.2824 65.2399 52.9049 64.8823 51.6141C64.5757 50.4729 63.7413 49.5936 62.8387 48.9389C61.1699 47.7042 59.2115 47.0307 57.236 46.5817C55.2606 46.1515 53.2512 45.927 51.2417 46.0579C50.2369 46.1141 49.2322 46.2637 48.2615 46.5256C47.4782 46.7314 46.218 46.9372 45.639 47.6107C45.4006 47.8913 45.4006 48.228 45.3836 48.6021C45.3325 49.2382 45.2473 49.8743 45.1792 50.5103V50.529Z" fill="#FFE7C0"/>
    <path d="M49.3003 50.6038C48.4148 51.932 47.972 53.597 47.6995 55.2245C47.3419 57.4133 47.2738 59.7517 48.1082 61.6973C48.9427 63.6616 50.85 65.0834 52.7062 64.5408C53.3022 64.3725 53.8472 64.017 54.341 63.6055C56.7762 61.6225 58.2919 58.199 58.2237 54.7943C58.1897 53.148 57.798 51.5017 56.8784 50.2857C54.9371 47.7228 51.1225 47.8351 49.3003 50.6038Z" fill="#413E49"/>
    <path d="M49.7431 53.8776C49.6409 54.3079 49.5728 54.8317 49.8112 55.1684C49.9474 55.3742 50.1688 55.4864 50.3902 55.5239C51.1565 55.6922 51.9228 55.2245 52.5529 54.682C53.3363 53.9898 54.0175 53.0919 54.3921 52.0256C54.9711 50.3606 53.8472 48.9014 52.3486 49.5375C51.0543 50.08 50.0666 52.4932 49.726 53.8963L49.7431 53.8776Z" fill="white"/>
    <path d="M47.0014 43.8504C48.483 41.7178 50.4925 39.9593 52.8425 39.08C54.835 38.3504 57.0148 38.2756 59.0924 38.6124C61.0337 38.9304 63.0091 39.6413 64.4226 41.1004C65.836 42.5409 66.5853 44.6175 66.7897 46.7127C67.011 48.7892 66.7386 50.9032 66.3639 52.961C66.0915 54.495 66.0233 54.7756 65.6828 56.2909C64.082 54.2892 63.3667 51.296 58.4282 48.2093C53.7451 45.2909 46.5587 44.4678 44.2427 51.9321C44.5322 51.3147 44.7195 48.9763 44.992 48.2654C45.571 46.7127 46.0648 45.2161 47.0014 43.8692V43.8504Z" fill="#75C973"/>
    <path d="M66.7897 46.7501C66.5683 44.6736 65.836 42.5971 64.4226 41.1379C63.7414 40.4457 62.941 39.9219 62.0725 39.5291C63.2986 40.9508 63.9798 42.8777 64.1671 44.8233C64.3885 46.8998 64.116 49.0137 63.7414 51.0716C63.4689 52.5308 63.7073 51.5206 63.4008 52.8488C64.2352 53.7467 64.9675 55.4304 65.6657 56.3097C66.0063 54.7944 66.0744 54.5137 66.3469 52.9797C66.7216 50.9219 66.994 48.808 66.7726 46.7314L66.7897 46.7501Z" fill="#DBECDE"/>
    <path opacity="0.3" d="M50.4414 41.5494C48.7896 42.6531 47.4272 44.1871 46.7631 46.0017C46.6779 46.2075 46.6949 46.5443 46.9334 46.5817C47.0526 46.6004 47.1718 46.5068 47.2569 46.432C49.8624 43.9626 52.519 41.3249 56.0782 40.2024C56.3677 40.1089 56.7593 39.9966 56.8275 39.6786C55.8227 39.1174 54.5285 39.716 53.5919 40.0341C52.4679 40.4082 51.3951 40.9133 50.4244 41.5681L50.4414 41.5494Z" fill="white"/>
    <path d="M30.4129 127.803C30.4343 127.761 30.4992 127.652 30.6141 127.533L31.5203 128.645C31.1943 128.625 30.8681 128.605 30.5419 128.585C30.4478 128.461 30.3993 128.352 30.3837 128.312C30.3257 128.163 30.3313 128.071 30.3321 128.058C30.3321 128.058 30.3321 128.058 30.3321 128.057C30.3321 128.057 30.3321 128.057 30.3322 128.056C30.3327 128.044 30.3368 127.949 30.4129 127.803Z" />
    <path d="M36.0882 133.99L36.644 134.562C37.3493 133.751 38.0307 132.515 38.1132 130.976C38.1216 130.82 38.1232 130.67 38.1184 130.524C38.1184 130.524 38.1184 130.524 38.1184 130.524C38.0916 129.706 37.8668 129.04 37.5495 128.55L37.54 128.694L37.5398 128.697L36.3301 128.618L36.3277 128.618L36.043 128.599M36.0882 133.99C36.6796 133.416 37.5103 132.307 37.5622 130.946C37.5622 130.946 37.5622 130.946 37.5622 130.946C37.567 130.821 37.5652 130.693 37.556 130.564C37.4752 129.442 36.8656 128.855 36.3018 128.662C36.3011 128.661 36.3004 128.661 36.2996 128.661C36.2123 128.631 36.126 128.61 36.043 128.599M36.0882 133.99C35.9563 134.118 35.8215 134.233 35.6844 134.334C35.6841 134.334 35.6838 134.335 35.6835 134.335C35.4608 134.5 35.2323 134.629 35.0014 134.722L36.6435 134.562L36.0882 133.99ZM36.043 128.599L36.0435 128.595L36.1866 127.568C36.1864 127.568 36.1862 127.568 36.186 127.568C35.8137 127.505 35.4319 127.551 35.0497 127.597C34.6426 127.646 34.235 127.696 33.8377 127.614C33.7683 127.599 33.6992 127.581 33.6305 127.558M36.043 128.599L36.0432 128.595C35.9165 128.578 35.7895 128.571 35.6624 128.57L34.6617 128.504L34.719 128.353C34.7124 128.37 34.6902 128.427 34.6405 128.503L34.5465 128.497L34.5462 128.5L34.5456 128.509C34.5463 128.451 34.547 128.393 34.5477 128.335L33.6675 128.325L33.3827 128.322L33.5203 127.898L33.6305 127.558M33.6305 127.558L33.5171 127.896L33.3746 128.322L33.3164 127.821C33.3834 127.643 33.4951 127.514 33.6305 127.558Z" />
    <path d="M55.5159 128.25C55.5373 128.209 55.6022 128.099 55.7172 127.981L56.6234 129.092C56.2973 129.073 55.9711 129.053 55.6449 129.033C55.5509 128.909 55.5024 128.8 55.4868 128.76C55.4288 128.61 55.4343 128.518 55.4351 128.506C55.4351 128.505 55.4351 128.505 55.4351 128.505C55.4352 128.505 55.4352 128.504 55.4352 128.504C55.4357 128.492 55.4398 128.397 55.5159 128.25Z" />
    <path d="M61.193 134.437L61.7487 135.009C62.454 134.199 63.1354 132.963 63.218 131.423C63.2264 131.268 63.2279 131.118 63.2231 130.972C63.2231 130.972 63.2231 130.972 63.2231 130.972C63.1963 130.154 62.9715 129.488 62.6542 128.997L62.6447 129.142L62.6445 129.145L61.4348 129.066L61.4324 129.065L61.1477 129.047M61.193 134.437C61.7844 133.864 62.615 132.754 62.667 131.394C62.667 131.394 62.667 131.394 62.667 131.393C62.6717 131.268 62.6699 131.141 62.6607 131.012C62.58 129.89 61.9704 129.303 61.4065 129.109C61.4058 129.109 61.4051 129.109 61.4044 129.109C61.317 129.079 61.2307 129.058 61.1477 129.047M61.193 134.437C61.0611 134.565 60.9262 134.68 60.7892 134.782C60.7889 134.782 60.7886 134.782 60.7883 134.783C60.5655 134.948 60.337 135.077 60.1062 135.17L61.7482 135.01L61.193 134.437ZM61.1477 129.047L61.1482 129.043L61.2913 128.016C61.2911 128.016 61.291 128.016 61.2908 128.016C60.9184 127.953 60.5367 127.999 60.1544 128.045C59.7473 128.094 59.3397 128.143 58.9424 128.061C58.873 128.047 58.8039 128.029 58.7352 128.006M61.1477 129.047L61.148 129.043C61.0212 129.026 60.8942 129.018 60.7671 129.018L59.7665 128.952L59.8237 128.8C59.8171 128.818 59.7949 128.875 59.7452 128.951L59.6512 128.945L59.651 128.948L59.6504 128.957C59.6511 128.899 59.6518 128.841 59.6524 128.783L58.7722 128.773L58.4874 128.769L58.625 128.345L58.7352 128.006M58.7352 128.006L58.6218 128.344L58.4794 128.769L58.4212 128.269C58.4882 128.091 58.5999 127.962 58.7352 128.006Z" />
    <mask id="path-31-inside-1_48_779" fill="#F6AD69">
      <path d="M44.4387 142.468C43.5743 137.847 43.0005 133.009 42.7166 128.051C42.7123 127.977 42.6994 127.92 42.6843 127.87C42.7205 127.264 42.2431 127.012 42.1621 127.654C41.5286 132.688 40.58 137.607 39.3376 142.315C39.1729 142.941 39.6943 143.224 39.8586 142.605C40.246 141.142 40.6018 139.657 40.931 138.156C41.658 138.088 42.3868 138.02 43.1138 137.953C43.352 139.656 43.6229 141.337 43.9324 142.992C44.0485 143.609 44.5548 143.085 44.4406 142.469L44.4387 142.468ZM41.1563 137.085C41.6031 134.944 41.9915 132.768 42.3189 130.566C42.4818 132.713 42.6999 134.831 42.9721 136.914C42.3676 136.969 41.761 137.027 41.1565 137.082L41.1563 137.085Z"/>
    </mask>
    
    <path d="M51.475 137.586C51.335 135.287 50.1221 134.224 49.0306 133.921C48.1437 133.673 46.1437 133.787 46.7394 130.98C47.346 128.121 49.5589 128.61 50.7844 128.053C51.1397 127.891 51.0463 126.873 50.691 127.035C49.4731 127.589 48.1253 127.287 47.028 128.779C46.19 129.918 45.7147 132.295 46.449 133.712C47.2063 135.173 48.5784 134.658 49.5564 135.23C50.1226 135.561 50.6695 136.241 50.8645 137.339C51.0492 138.37 50.824 139.58 50.4335 140.444C49.3441 142.854 47.4778 142.364 46.1234 141.967C45.7797 141.867 45.5751 142.876 45.9222 142.979C47.1878 143.353 48.5288 143.704 49.7919 142.576C50.8004 141.676 51.5994 139.673 51.4727 137.593L51.475 137.586Z" fill="white"/>
    <path d="M51.475 137.586L54.3195 138.539L54.5049 137.986L54.4695 137.403L51.475 137.586ZM49.0306 133.921L48.2245 136.81L48.2285 136.811L49.0306 133.921ZM46.7394 130.98L49.6741 131.603L49.6741 131.602L46.7394 130.98ZM50.7844 128.053L52.0248 130.785L52.0298 130.782L50.7844 128.053ZM50.691 127.035L51.9322 129.767L51.9364 129.765L50.691 127.035ZM47.028 128.779L49.4442 130.558L49.4452 130.556L47.028 128.779ZM46.449 133.712L43.7854 135.093L43.7857 135.093L46.449 133.712ZM49.5564 135.23L51.0716 132.64L51.0709 132.64L49.5564 135.23ZM50.8645 137.339L47.9108 137.864L47.9116 137.868L50.8645 137.339ZM50.4335 140.444L47.7 139.208L47.6998 139.208L50.4335 140.444ZM46.1234 141.967L46.9676 139.088L46.9587 139.085L46.1234 141.967ZM45.9222 142.979L45.066 145.854L45.0723 145.856L45.9222 142.979ZM49.7919 142.576L47.7945 140.337L47.7935 140.338L49.7919 142.576ZM51.4727 137.593L48.6282 136.639L48.4428 137.192L48.4782 137.775L51.4727 137.593ZM54.4695 137.403C54.2584 133.937 52.2614 131.704 49.8327 131.03L48.2285 136.811C48.1797 136.798 48.1936 136.785 48.2366 136.84C48.2727 136.887 48.4415 137.127 48.4805 137.768L54.4695 137.403ZM49.8367 131.031C49.7005 130.993 49.5754 130.964 49.4762 130.943C49.3769 130.922 49.2817 130.904 49.2081 130.89C49.0397 130.858 48.9586 130.844 48.8719 130.824C48.7952 130.807 48.7753 130.799 48.7877 130.803C48.8014 130.808 48.8759 130.837 48.9796 130.905C49.089 130.977 49.223 131.089 49.3464 131.249C49.4717 131.412 49.5499 131.578 49.5924 131.718C49.6706 131.976 49.5884 132.006 49.6741 131.603L43.8048 130.357C43.5926 131.357 43.537 132.425 43.8503 133.459C44.1889 134.576 44.8778 135.388 45.6784 135.915C46.4001 136.391 47.1345 136.584 47.5574 136.679C47.7736 136.727 47.9896 136.766 48.098 136.787C48.2462 136.814 48.2546 136.819 48.2245 136.81L49.8367 131.031ZM49.6741 131.602C49.744 131.273 49.8119 131.255 49.7354 131.344C49.6533 131.44 49.5715 131.467 49.6188 131.449C49.7215 131.408 49.8679 131.372 50.3036 131.286C50.6087 131.226 51.3416 131.095 52.0248 130.785L49.544 125.322C49.6144 125.29 49.6111 125.307 49.1377 125.4C48.7948 125.468 48.1203 125.593 47.4408 125.858C46.7058 126.144 45.8805 126.62 45.1746 127.445C44.4743 128.265 44.0382 129.257 43.8048 130.357L49.6741 131.602ZM52.0298 130.782C53.2524 130.225 53.6923 129.155 53.8365 128.687C54.0071 128.134 54.0325 127.594 53.9916 127.149C53.9564 126.765 53.8372 126.053 53.3545 125.37C53.0939 125.002 52.6054 124.477 51.808 124.196C50.9401 123.891 50.0935 124.01 49.4456 124.306L51.9364 129.765C51.3773 130.02 50.6113 130.136 49.8152 129.856C49.0896 129.6 48.6639 129.129 48.4564 128.836C48.08 128.304 48.0286 127.826 48.0167 127.697C47.9992 127.506 48.0036 127.241 48.1028 126.919C48.1757 126.683 48.494 125.801 49.5389 125.324L52.0298 130.782ZM49.4498 124.304C49.4198 124.318 49.3379 124.35 49.0829 124.409C48.9174 124.447 48.3971 124.553 47.9848 124.672C46.907 124.982 45.6527 125.585 44.6108 127.002L49.4452 130.556C49.5075 130.471 49.5264 130.471 49.4996 130.488C49.4832 130.498 49.5048 130.478 49.6437 130.438C49.8577 130.377 49.9713 130.362 50.4353 130.254C50.8099 130.168 51.3532 130.03 51.9322 129.767L49.4498 124.304ZM44.6119 127.001C43.8265 128.068 43.3617 129.451 43.1796 130.713C43.0007 131.954 43.0186 133.613 43.7854 135.093L49.1126 132.332C49.1424 132.389 49.1129 132.359 49.0958 132.194C49.0795 132.036 49.0819 131.821 49.1182 131.57C49.1542 131.32 49.2171 131.079 49.292 130.878C49.3287 130.78 49.3645 130.701 49.3949 130.642C49.426 130.582 49.4449 130.557 49.4442 130.558L44.6119 127.001ZM43.7857 135.093C44.1927 135.878 44.7537 136.518 45.4587 136.985C46.1337 137.433 46.8003 137.628 47.2651 137.732C47.4941 137.783 47.7079 137.819 47.8534 137.843C48.023 137.871 48.1026 137.884 48.1831 137.9C48.3363 137.93 48.2233 137.925 48.0419 137.819L51.0709 132.64C50.4005 132.248 49.7493 132.093 49.3465 132.013C49.149 131.974 48.9462 131.942 48.8329 131.923C48.6955 131.901 48.6258 131.888 48.5748 131.876C48.4798 131.855 48.6002 131.869 48.7743 131.985C48.9785 132.12 49.0841 132.277 49.1124 132.331L43.7857 135.093ZM48.0412 137.819C47.9159 137.745 47.863 137.675 47.8516 137.658C47.8378 137.637 47.8797 137.689 47.9108 137.864L53.8183 136.814C53.4867 134.947 52.4774 133.463 51.0716 132.64L48.0412 137.819ZM47.9116 137.868C47.9339 137.993 47.9428 138.214 47.8988 138.503C47.8554 138.789 47.7752 139.041 47.7 139.208L53.1671 141.68C53.7583 140.372 54.1284 138.545 53.8175 136.81L47.9116 137.868ZM47.6998 139.208C47.5752 139.484 47.509 139.5 47.5874 139.436C47.6248 139.405 47.6772 139.371 47.7401 139.344C47.8017 139.317 47.8529 139.304 47.8832 139.299C47.9321 139.291 47.8931 139.307 47.7114 139.277C47.5232 139.245 47.3054 139.187 46.9676 139.088L45.2792 144.845C45.8755 145.02 47.3237 145.476 48.8724 145.217C50.7679 144.9 52.2707 143.663 53.1672 141.679L47.6998 139.208ZM46.9587 139.085C45.1346 138.556 43.9047 139.73 43.5045 140.26C43.0839 140.817 42.903 141.405 42.8224 141.806C42.7392 142.221 42.6909 142.796 42.8324 143.423C42.9538 143.962 43.4424 145.371 45.066 145.854L46.7784 140.104C48.2284 140.536 48.6124 141.78 48.6853 142.103C48.7783 142.515 48.7375 142.825 48.705 142.987C48.6752 143.136 48.5882 143.484 48.2918 143.877C48.0158 144.242 46.9403 145.327 45.288 144.848L46.9587 139.085ZM45.0723 145.856C46.2409 146.201 49.1737 147.15 51.7903 144.813L47.7935 140.338C47.7396 140.386 47.7389 140.373 47.7885 140.355C47.8352 140.337 47.8591 140.34 47.8276 140.341C47.7851 140.341 47.6862 140.336 47.4989 140.296C47.3048 140.256 47.0856 140.195 46.772 140.102L45.0723 145.856ZM51.7892 144.814C53.6393 143.163 54.6356 140.177 54.4672 137.41L48.4782 137.775C48.5156 138.388 48.4144 139.006 48.2308 139.523C48.1405 139.778 48.0393 139.982 47.9472 140.131C47.8517 140.285 47.7898 140.341 47.7945 140.337L51.7892 144.814ZM54.3172 138.546L54.3195 138.539L48.6305 136.632L48.6282 136.639L54.3172 138.546Z" fill="#F6AD69" mask="url(#path-33-inside-2_48_779)"/>
  </g>
  <defs>
    <clipPath id="clip0_48_779">
      <rect width="133" height="165" fill="white" transform="translate(0.800537)"/>
    </clipPath>
  </defs>
</svg>