<svg width="63" height="182" viewBox="0 0 63 182" fill="none" xmlns="http://www.w3.org/2000/svg">
<path fill-rule="evenodd" clip-rule="evenodd" d="M47.24 39.9278C38.6874 38.7041 33.7064 38.6098 24.0668 40.8123C24.0668 40.8123 18.3055 47.18 14.8053 52.6572C13.675 54.4259 12.7804 56.1018 12.3918 57.4403C10.7998 62.9241 9.38456 170.83 12.038 176.313C14.6915 181.797 55.2003 182.151 59.7995 177.021C64.3987 171.891 61.3916 65.2237 60.5071 57.971C59.6226 50.7183 47.24 39.9278 47.24 39.9278Z" fill="#75C973"/>
<path d="M30.0576 20.1572C33.5557 17.6572 41.8244 18.9064 42.0557 19.6572C42.3049 18.9607 43.3827 4.49479 42.7403 1.60888C42.6682 1.28488 42.4172 1.05357 42.0873 1.01676C39.4612 0.723807 29.5199 4.33672 29.0576 6.65723C28.5596 9.15722 30.0576 20.1572 30.0576 20.1572Z" fill="#FFC215"/>
<path d="M47.24 39.9278C47.24 39.9278 43.9899 27.6707 42.0557 19.6572C41.8244 18.9064 33.5557 17.6572 30.0576 20.1572L24.0668 40.8123C33.7064 38.6098 38.6874 38.7041 47.24 39.9278Z" fill="#C7DDF0"/>
<path d="M42.0557 19.6572C43.9899 27.6707 47.24 39.9278 47.24 39.9278M42.0557 19.6572C41.8244 18.9064 33.5557 17.6572 30.0576 20.1572M42.0557 19.6572C42.3049 18.9607 43.3827 4.49479 42.7403 1.60888C42.6682 1.28488 42.4172 1.05357 42.0873 1.01676C39.4612 0.723807 29.5199 4.33672 29.0576 6.65723C28.5596 9.15722 30.0576 20.1572 30.0576 20.1572M47.24 39.9278C47.24 39.9278 59.6226 50.7183 60.5071 57.971C61.3916 65.2237 64.3987 171.891 59.7995 177.021C55.2003 182.151 14.6915 181.797 12.038 176.313C9.38456 170.83 10.7998 62.9241 12.3918 57.4403C12.7804 56.1018 13.675 54.4259 14.8053 52.6572C18.3055 47.18 24.0668 40.8123 24.0668 40.8123M47.24 39.9278C38.6874 38.7041 33.7064 38.6098 24.0668 40.8123M24.0668 40.8123L30.0576 20.1572" stroke="white"/>
<path d="M18.5578 175.657C18.5578 175.657 16.0558 59.1572 16.0474 56.9339C16.039 54.7106 13.3707 58.3412 13.3707 58.3412C13.3707 58.3412 13.4632 170.469 13.7594 172.313C14.0557 174.157 18.5578 175.657 18.5578 175.657Z" fill="#92D390"/>
<path d="M18.3209 66.8686C17.86 67.398 17.4224 67.988 17.2473 68.6818C17.2167 68.7956 17.2035 68.9306 17.2615 69.0337C17.3883 69.2311 17.6784 69.1525 17.8836 69.046C20.9529 67.5354 24.0223 66.0249 27.1013 64.5154C27.4394 64.344 27.7969 64.1745 28.0393 63.8867C28.2914 63.5997 28.412 63.1636 28.2407 62.8255C28.1264 62.6 27.9063 62.4616 27.6833 62.3521C25.8646 61.4339 24.5378 62.4529 22.9492 63.2613C21.1969 64.1511 19.6149 65.3886 18.319 66.8879L18.3209 66.8686Z" fill="#413E49"/>
<path d="M17.4849 76.757C16.9381 78.896 17.3964 81.2039 18.0478 83.3429C18.7554 85.6428 19.7365 87.9587 21.4734 89.567C23.2023 91.1753 25.8399 91.899 27.8342 90.7652C28.8554 90.1781 29.6113 89.173 30.0858 88.0552C30.5522 86.9375 30.7532 85.6991 30.8336 84.4768C31.0025 82.0241 30.7291 79.5313 30.0375 77.1591C29.748 76.17 29.3781 75.1809 28.7831 74.3526C27.3437 72.3423 24.7382 71.699 22.5671 72.479C21.5378 72.8489 20.42 72.9856 19.5194 73.6611C18.5303 74.4009 17.8065 75.5428 17.4849 76.7731V76.757Z" fill="#438342"/>
<path d="M17.9272 77.9874C17.4045 80.0701 17.8468 82.3137 18.482 84.3883C19.1656 86.6319 20.1225 88.8754 21.7951 90.4435C23.4677 92.0116 26.0008 92.7273 27.9146 91.6256C28.8957 91.0627 29.6274 90.0817 30.0697 88.9961C30.52 87.9105 30.705 86.7123 30.7774 85.5141C30.9302 83.1258 30.6648 80.7054 29.9973 78.3975C29.7159 77.4325 29.3621 76.4756 28.7831 75.6634C27.3919 73.7093 24.883 73.0741 22.8003 73.8219C21.8112 74.1757 20.7336 74.3124 19.8732 74.9638C18.9243 75.6795 18.2247 76.7892 17.9272 77.9874Z" fill="#FFF3E9"/>
<path d="M30.0375 78.3894C29.756 77.4244 29.4022 76.4675 28.8232 75.6553C28.3086 74.9316 27.6411 74.3928 26.9013 74.031C27.0461 74.1918 27.1908 74.3526 27.3195 74.5376C27.8984 75.3498 28.2523 76.3067 28.5337 77.2717C29.2012 79.5795 29.4746 82.0081 29.3137 84.3883C29.2333 85.5865 29.0484 86.7766 28.6061 87.8702C28.1558 88.9558 27.432 89.9369 26.451 90.4998C25.0116 91.328 23.2264 91.127 21.7146 90.3148C21.7548 90.355 21.795 90.3952 21.8352 90.4355C23.5078 92.0035 26.0409 92.7192 27.9547 91.6175C28.9358 91.0546 29.6676 90.0736 30.1098 88.988C30.5602 87.9024 30.7451 86.7042 30.8175 85.5061C30.9703 83.1178 30.7049 80.6973 30.0375 78.3894Z" fill="#FFE7C0"/>
<path d="M21.007 81.8955C20.8221 82.8042 20.9588 83.7691 21.192 84.6778C21.4976 85.884 22.0122 87.1063 22.937 87.8944C23.8617 88.6824 25.277 88.9156 26.1937 88.1678C26.4832 87.9265 26.7084 87.6049 26.9014 87.2671C27.802 85.6267 27.8503 83.4796 27.014 81.7507C26.6119 80.9225 26.0007 80.1666 25.1966 79.7886C23.5079 78.9764 21.385 80.0218 20.999 81.9035L21.007 81.8955Z" fill="#413E49"/>
<path d="M22.0201 83.4555C22.0683 83.7048 22.1487 83.9862 22.3659 84.0988C22.4945 84.1632 22.6393 84.1632 22.776 84.131C23.2424 84.0184 23.5721 83.5842 23.7972 83.1419C24.0787 82.579 24.2476 81.9437 24.2073 81.3004C24.143 80.2952 23.17 79.8369 22.4704 80.5526C21.8673 81.1717 21.8753 82.6514 22.0201 83.4555Z" fill="white"/>
<path opacity="0.3" d="M18.9002 83.1098C19.0047 84.4125 19.447 85.6991 20.2592 86.7203C20.3557 86.841 20.5326 86.9535 20.6291 86.841C20.6773 86.7766 20.6613 86.6882 20.6452 86.6078C20.0582 84.2918 19.3988 81.8955 19.8652 79.5555C19.9054 79.3625 19.9536 79.1132 19.8089 78.9604C19.1897 79.3062 19.1254 80.2148 19.0128 80.8421C18.8841 81.5899 18.8359 82.3539 18.9002 83.1178V83.1098Z" fill="white"/>
<path d="M20.6211 77.4003C21.5378 76.8455 22.6154 76.6284 23.6769 76.548C24.7464 76.4595 25.832 76.4997 26.8693 76.7731C27.9066 77.0385 28.8957 77.5531 29.6436 78.3171C29.338 76.9581 28.3489 75.8081 27.1347 75.1487C25.9124 74.4813 24.481 74.2722 23.0979 74.3607C22.4063 74.4089 21.7147 74.5215 21.0714 74.7869C19.825 75.3015 18.8359 76.355 18.2811 77.5933C18.0398 78.1401 17.879 78.7111 17.7825 79.2981C17.7262 79.6359 17.5011 80.5928 17.8468 80.8581C18.1524 81.0913 18.3293 80.2068 18.4499 79.9495C18.6831 79.467 18.9646 79.0006 19.2943 78.5824C19.6642 78.1241 20.1065 77.714 20.605 77.4084L20.6211 77.4003Z" fill="#FFE7C0"/>
<path d="M18.7071 78.3733C19.4871 77.0304 20.4762 76.5479 21.5618 76.2343C21.9961 76.1057 22.4464 76.0253 22.8967 75.969C24.3281 75.776 25.7916 75.8081 27.2149 76.0494C28.1397 76.2102 29.4344 77.0224 30.0294 77.8346C29.7078 77.1752 29.1207 75.8162 28.7991 75.1568C28.6785 74.9075 28.5578 74.6582 28.3729 74.4572C28.1638 74.232 27.8985 74.0792 27.625 73.9345C27.0541 73.6209 26.4751 73.2992 25.8479 73.1464C25.2046 72.9936 24.5211 73.0178 23.8617 73.0741C22.181 73.2268 20.436 73.6611 19.1896 74.803C18.3372 75.591 17.7743 76.6686 17.5411 77.8104C17.3401 78.7915 17.316 81.0753 17.6778 82.0241C17.8628 81.9276 18.1281 79.3544 18.7071 78.3653V78.3733Z" fill="#438342"/>
<path opacity="0.34" d="M18.5141 75.8483C17.9271 76.7811 17.6939 77.9311 17.8627 79.0247C17.9753 77.9793 18.4819 76.9983 19.2056 76.2424C19.9294 75.4865 20.8541 74.9316 21.8432 74.5778C22.2775 74.425 22.7439 74.2883 23.0575 73.9506C23.0977 73.9104 23.1299 73.8621 23.1379 73.8058C23.154 73.6611 22.969 73.5887 22.8243 73.5726C21.1677 73.4038 19.3906 74.4652 18.5302 75.8483H18.5141Z" fill="white"/>
<path d="M45.214 74.4406C43.9187 76.2347 43.5003 78.5436 43.3233 80.7721C43.1383 83.1776 43.2027 85.6877 44.2244 87.8197C45.2461 89.9516 47.4344 91.5928 49.7031 91.263C50.8697 91.094 51.9477 90.4343 52.7925 89.5655C53.6372 88.6966 54.2728 87.6185 54.8038 86.5083C55.8577 84.2878 56.5254 81.8663 56.7507 79.4044C56.8472 78.3747 56.8633 77.3207 56.6139 76.3312C56.0105 73.9337 53.8223 72.381 51.5214 72.3086C50.4272 72.2764 49.3411 71.9949 48.255 72.2925C47.0643 72.6143 45.9702 73.4108 45.222 74.4486L45.214 74.4406Z" fill="#438342"/>
<path d="M45.1738 75.7439C43.9268 77.4897 43.5165 79.7423 43.3476 81.9065C43.1625 84.2396 43.2269 86.6853 44.2084 88.761C45.1899 90.8366 47.2897 92.4295 49.478 92.1077C50.5963 91.9388 51.6341 91.2952 52.4547 90.4504C53.2753 89.6057 53.8787 88.5518 54.3936 87.4737C55.4153 85.3096 56.0509 82.9524 56.2761 80.563C56.3727 79.5654 56.3888 78.5356 56.1474 77.5782C55.5682 75.2451 53.4684 73.7407 51.256 73.6683C50.2101 73.6361 49.1562 73.3706 48.1103 73.6522C46.9598 73.9659 45.914 74.7463 45.1899 75.752L45.1738 75.7439Z" fill="#FFF3E9"/>
<path d="M56.3081 80.5629C56.4046 79.5653 56.4207 78.5356 56.1794 77.5782C55.9621 76.7174 55.5438 75.9692 54.9806 75.3658C55.0611 75.5669 55.1335 75.7761 55.1818 75.9933C55.4231 76.9587 55.407 77.9805 55.3105 78.9781C55.0852 81.3675 54.4497 83.7247 53.4279 85.8888C52.9211 86.9749 52.3097 88.0208 51.4891 88.8655C50.6765 89.7183 49.6387 90.3619 48.5123 90.5228C46.8711 90.7642 45.2782 89.9275 44.168 88.6161C44.1921 88.6644 44.2162 88.7207 44.2404 88.769C45.2219 90.8446 47.3217 92.4376 49.5099 92.1158C50.6282 91.9549 51.666 91.3032 52.4867 90.4585C53.3073 89.6137 53.9106 88.5598 54.4255 87.4818C55.4473 85.3176 56.0828 82.9604 56.3081 80.571V80.5629Z" fill="#FFE7C0"/>
<path d="M46.6059 80.5147C46.0991 81.2951 45.8738 82.2363 45.7612 83.1696C45.6083 84.4085 45.6405 85.7279 46.2117 86.806C46.7829 87.884 48.0138 88.6161 49.1401 88.2541C49.5022 88.1334 49.824 87.9243 50.1297 87.6749C51.5698 86.4842 52.3984 84.497 52.2616 82.5823C52.1973 81.6651 51.8996 80.7399 51.2962 80.0883C50.0251 78.7126 47.6598 78.9057 46.614 80.5227L46.6059 80.5147Z" fill="#413E49"/>
<path d="M46.9839 82.3329C46.9356 82.5823 46.9115 82.8719 47.0724 83.065C47.1609 83.1776 47.3057 83.2259 47.4425 83.25C47.9171 83.3144 48.3837 83.0328 48.7538 82.7029C49.2204 82.2846 49.6146 81.7536 49.8077 81.1422C50.1134 80.1848 49.3733 79.3964 48.4642 79.8067C47.6758 80.1607 47.1448 81.5444 46.9839 82.3409V82.3329Z" fill="white"/>
<path opacity="0.3" d="M44.2003 80.8687C43.8222 82.1157 43.7658 83.4753 44.144 84.7223C44.1842 84.8671 44.3129 85.0441 44.4497 84.9717C44.5221 84.9315 44.5382 84.843 44.5462 84.7625C44.8439 82.3973 45.1094 79.9193 46.4047 77.9161C46.5092 77.7472 46.6541 77.538 46.5736 77.3369C45.8737 77.4334 45.4714 78.254 45.1416 78.8011C44.7474 79.4527 44.4175 80.1446 44.2003 80.8767V80.8687Z" fill="white"/>
<path d="M47.9009 76.1864C48.9548 76.0014 50.0409 76.2025 51.0627 76.5082C52.0924 76.822 53.09 77.2564 53.9589 77.8839C54.8278 78.5114 55.5599 79.3481 55.9782 80.3377C56.1955 78.962 55.6967 77.5299 54.8037 76.468C53.9106 75.406 52.6556 74.682 51.3362 74.2556C50.6765 74.0464 49.9846 73.9016 49.2927 73.9096C47.9412 73.9338 46.6378 74.5532 45.6724 75.4945C45.246 75.9129 44.884 76.3875 44.5863 76.9024C44.4093 77.2001 43.8462 78.0046 44.0714 78.3747C44.2726 78.7045 44.7633 77.9483 44.9645 77.7552C45.3587 77.3932 45.7851 77.0633 46.2517 76.7898C46.7666 76.4921 47.3217 76.2749 47.909 76.1784L47.9009 76.1864Z" fill="#FFE7C0"/>
<path d="M45.7611 76.3956C46.984 75.4382 48.0701 75.3497 49.2044 75.4543C49.655 75.4945 50.1055 75.583 50.548 75.6956C51.9559 76.0416 53.2994 76.6047 54.5384 77.3529C55.3429 77.8437 56.2439 79.0746 56.5014 80.0481C56.4451 79.3159 56.3968 77.8437 56.3405 77.1035C56.3163 76.83 56.2922 76.5565 56.1957 76.299C56.083 76.0174 55.89 75.7761 55.6969 75.5347C55.2866 75.0359 54.8602 74.5291 54.3292 74.151C53.7821 73.7648 53.1466 73.5476 52.5029 73.3545C50.8778 72.8798 49.0999 72.6465 47.515 73.2499C46.4289 73.6683 45.5117 74.4728 44.8762 75.4462C44.3291 76.2829 43.4683 78.3988 43.4602 79.4125C43.6694 79.3964 44.8601 77.0955 45.7611 76.3875V76.3956Z" fill="#438342"/>
<path opacity="0.34" d="M46.5092 73.9659C45.6242 74.6256 44.9806 75.6071 44.7393 76.6852C45.23 75.76 46.0587 75.0279 47.008 74.5854C47.9573 74.1429 49.0193 73.9659 50.0732 73.9981C50.5318 74.0142 51.0225 74.0625 51.4328 73.8533C51.4811 73.8292 51.5294 73.797 51.5615 73.7487C51.6259 73.62 51.4811 73.4832 51.3524 73.4188C49.8721 72.6546 47.8286 72.9925 46.5172 73.9579L46.5092 73.9659Z" fill="white"/>
<path d="M35.5828 116.55C35.5828 116.55 35.5128 116.55 35.4728 116.55C35.4328 116.55 35.4028 116.55 35.3628 116.55C30.1628 116.67 24.9028 114.09 21.6128 110.07C22.0228 111.92 22.5828 113.76 23.0728 115.6C23.8428 118.48 24.6228 121.39 26.0928 123.97C27.5628 126.55 29.8328 128.8 32.6628 129.58C33.5828 129.83 34.5228 129.92 35.4628 129.86C36.4028 129.92 37.3528 129.83 38.2628 129.58C41.0928 128.8 43.3628 126.55 44.8328 123.97C46.3028 121.39 47.0928 118.48 47.8528 115.6C48.3428 113.76 48.9028 111.93 49.3128 110.07C46.0228 114.09 40.7628 116.67 35.5628 116.56L35.5828 116.55Z" fill="#413E49"/>
<path d="M35.5028 116.55C35.5028 116.55 35.4328 116.55 35.3928 116.55C35.3528 116.55 35.3228 116.55 35.2828 116.55C31.3128 116.64 27.3028 115.15 24.1628 112.65C24.2328 113.43 24.2428 114.22 24.2928 114.99C24.3128 115.26 24.3228 115.53 24.4128 115.79C24.5328 116.18 24.8028 116.5 25.0728 116.79C27.0028 118.86 29.7728 119.95 32.5428 120.35C37.1228 121.01 41.9328 119.89 45.7628 117.25C46.0028 117.08 46.2528 116.9 46.3828 116.64C46.5428 116.31 46.5028 115.91 46.4428 115.55C46.3228 114.72 46.2028 113.89 46.0828 113.05C43.0328 115.3 39.2428 116.63 35.4928 116.55H35.5028Z" fill="white"/>
<path d="M42.8629 126.61C42.8129 126.48 42.7529 126.34 42.6929 126.21C41.6729 124.1 39.2829 122.76 36.9829 122.99C36.0329 123.08 34.9829 123.55 34.7429 124.49C33.3129 123.42 31.2029 123.42 29.7629 124.47C28.8129 125.17 28.4629 125.99 28.2729 126.91C29.5029 128.15 30.9629 129.11 32.6229 129.57C33.5429 129.82 34.4829 129.91 35.4229 129.85C36.3629 129.91 37.313 129.82 38.2229 129.57C40.0129 129.08 41.5829 127.99 42.8629 126.61Z" fill="#FF624D"/>
<path d="M20.6329 110.87C20.5129 110.8 20.5629 110.48 20.5629 110.36C20.5629 110.17 20.5729 109.99 20.6029 109.81C20.6629 109.46 20.7829 109.11 21.0429 108.86C21.2629 108.64 21.5729 108.49 21.8829 108.53C22.2329 108.57 22.5429 108.82 22.8129 109.02C22.8929 109.08 23.0429 109 22.9629 108.9C22.7529 108.62 22.5129 108.35 22.1729 108.22C21.8529 108.11 21.5029 108.15 21.2029 108.3C20.5329 108.62 20.2229 109.37 20.2429 110.08C20.2429 110.28 20.2729 110.49 20.3329 110.68C20.3729 110.82 20.4629 110.93 20.6129 110.94C20.6529 110.94 20.6629 110.88 20.6329 110.87Z" fill="#413E49"/>
<path d="M48.1629 109.86C48.3529 109.49 48.7529 109.18 49.1129 109.01C49.5029 108.83 49.9829 108.76 50.3229 109.07C51.1029 109.77 50.6229 110.9 50.4029 111.73C50.3829 111.81 50.4929 111.85 50.5329 111.78C51.0029 111.02 51.3529 110.05 50.8929 109.21C50.7129 108.89 50.4229 108.62 50.0629 108.53C49.6529 108.43 49.1929 108.55 48.8529 108.78C48.6729 108.9 48.5129 109.05 48.3729 109.23C48.2329 109.42 48.1729 109.62 48.1029 109.84C48.0929 109.87 48.1429 109.9 48.1629 109.86Z" fill="#413E49"/>
<path d="M56.4574 66.9799C56.8774 67.5699 57.2674 68.2199 57.3774 68.9499C57.3974 69.0699 57.3974 69.2099 57.3274 69.3099C57.1774 69.4999 56.8874 69.3899 56.6874 69.2599C53.6874 67.3999 50.6874 65.5399 47.6774 63.6799C47.3474 63.4699 46.9974 63.2599 46.7774 62.9399C46.5474 62.6199 46.4674 62.1599 46.6774 61.8299C46.8174 61.6099 47.0574 61.4899 47.2974 61.3999C49.2574 60.6399 50.5174 61.8199 52.0674 62.8099C53.7774 63.8999 55.2774 65.3299 56.4574 66.9999V66.9799Z" fill="#413E49"/>
<path d="M46.0557 38.6572C45.1057 38.2636 44.0712 38.354 43.0557 38.1572C40.566 37.6933 30.083 37.6933 27.5933 38.1572C26.5614 38.34 25.5134 38.5508 24.5798 38.9445C21.959 40.041 20.5644 42.6829 21.0558 45.1572C21.6291 45.2416 24.4991 43.8962 25.056 43.6572C28.4465 42.1811 32.2395 42.2275 36.056 42.1572C39.8724 42.2275 44.1651 42.1811 47.5557 43.6572C48.1126 43.8962 49.2826 45.1572 50.0557 45.1572C50.76 45.0588 50.9574 45.1352 51.0557 44.6572C51.5307 42.1829 48.6764 39.7538 46.0557 38.6572Z" fill="#7EADFF"/>
<path d="M27.5557 38.1572C25.0557 38.1572 30.5557 22.1572 31.0556 21.1572C31.5555 20.1572 31.546 19.6557 33.0556 20.1572C34.5651 20.6588 32.5985 36.6841 32.0556 37.1572C31.5126 37.6303 30.0557 38.1572 27.5557 38.1572Z" fill="#D0E2F2"/>
<path opacity="0.35" d="M21.9659 41.7485C21.753 42.0578 21.5729 42.3812 21.5565 42.7326C21.5401 43.0841 21.7694 43.4637 22.1461 43.5902C22.3918 43.6745 22.6866 43.6464 22.9486 43.5902C24.308 43.2668 25.1924 42.1984 26.2406 41.3971C27.9602 40.0756 30.2532 39.4008 32.5461 39.0915C34.839 38.7822 37.1646 38.8244 39.4739 38.726C39.6049 38.726 39.736 38.7119 39.8178 38.6135C39.8997 38.5151 39.8178 38.3604 39.7196 38.2902C39.6049 38.2199 39.4412 38.2058 39.2937 38.2058C37.4267 38.1074 35.5432 38.1777 33.6598 38.248C32.5461 38.2901 31.4324 38.3464 30.335 38.4026C28.7955 38.487 26.6828 38.4307 25.3562 39.2039C24.0459 39.949 22.8012 40.5395 21.9659 41.7485Z" fill="#D0E2F2"/>
<path d="M42.0557 37.6573C40.4389 37.1654 39.8126 22.6248 39.0556 20.6573C38.2987 18.6898 41.7137 19.5105 41.8847 20.8339C42.0557 22.1573 46.4951 37.6907 46.0556 38.1572C45.6161 38.6238 43.6724 38.1491 42.0557 37.6573Z" fill="#B1D4F1"/>
<path d="M32.0556 16.1573C31.4421 15.9498 31.5556 9.15727 31.5556 8.15727C31.5556 7.15727 34.0556 6.65727 34.0556 7.15727C34.0556 7.65727 34.5557 15.6573 34.0556 16.1573C33.5556 16.6573 32.6692 16.3648 32.0556 16.1573Z" fill="#FBD86B"/>
<path d="M38.2195 46.3047C35.7404 46.3029 15.9902 47.5026 24.8077 44.3429C33.6252 41.1833 42.6851 42.3793 42.6851 42.3793C45.0358 42.4914 50.1238 43.7892 52.6168 45.8155C55.1098 47.8419 59.5691 52.6878 60.0657 56.6148C60.5623 60.5418 61.5556 111.102 61.5557 113.065C61.5557 115.029 61.0484 159.134 61.0484 159.134C61.0484 159.134 61.5557 174.657 56.0557 176.657C44.7611 180.764 28.9566 180.537 26.5557 178.657C24.1547 176.778 40.6987 173.443 40.6987 173.443L48.3656 172.38L52.4241 171.399C52.4241 171.399 53.9459 169.952 54.4533 168.455C54.9608 166.958 56.9898 157.733 56.9898 157.733L58.0045 142.946C58.0045 142.946 58.576 127.482 58.5761 125.828C58.5762 124.174 58.5761 116.011 58.5761 116.011L58.5118 98.3044C58.5118 98.3044 58.0795 75.7587 58.0795 74.7772C58.0796 73.7956 57.5829 67.9049 57.5829 65.4503C57.5829 62.9958 56.9792 58.5688 57.0863 57.5965C57.1935 56.6243 53.6101 52.1968 51.4095 50.7197C49.2089 49.2426 40.6985 46.3064 38.2195 46.3047Z" fill="#5EC75E"/>
</svg>
