<svg width="126" height="192" viewBox="0 0 126 192" fill="none" xmlns="http://www.w3.org/2000/svg">
<g opacity="0.8" clip-path="url(#clip0_48_936)">
<path d="M25.2849 169.314C25.8453 172.367 26.4512 175.547 28.337 178.056C29.9722 180.232 32.474 181.703 35.1069 182.526C37.7398 183.35 40.5437 183.577 43.3213 183.65C51.3189 183.828 59.4513 182.621 66.7331 179.394C68.6232 178.559 70.5061 177.541 71.6817 175.894C72.5534 174.676 72.9627 173.205 73.1416 171.72C73.7496 166.838 72.0618 161.988 70.0665 157.476C68.7987 154.622 67.3994 151.826 65.8685 149.09C64.2123 146.127 62.183 143.058 58.9606 141.769C57.238 141.089 55.3464 140.99 53.485 141.015C45.5438 141.116 37.6568 143.288 30.8249 147.218C29.3177 148.086 27.8445 149.048 26.7002 150.338C21.7143 155.898 24.1438 162.889 25.3021 169.301L25.2849 169.314Z" fill="#F1AD69"/>
<path d="M73.1416 171.72C72.9495 173.188 72.5535 174.676 71.6818 175.894C70.5061 177.541 68.6213 178.574 66.7332 179.394C63.8571 180.665 60.8522 181.619 57.7737 182.307C58.2203 181.971 58.6403 181.601 59.0205 181.181C59.8666 180.276 60.5419 179.139 60.5639 177.906C60.5777 176.145 59.1868 174.586 57.5482 173.856C55.8943 173.123 54.0312 173.043 52.2232 173.015C46.0735 172.916 39.9132 173.252 33.7521 173.121C31.1116 173.065 28.3933 172.894 25.8648 172.219C25.6347 171.256 25.4541 170.27 25.2869 169.3C24.8544 166.925 24.2601 164.486 23.9268 162.064C24.9089 161.658 26.0523 161.559 27.1344 161.572C30.2436 161.596 33.298 162.276 36.3875 162.569C44.5876 163.329 52.8345 161.247 60.4265 158.135C63.1422 157.025 65.8163 155.759 68.6871 155.12C68.7671 155.1 68.8625 155.082 68.9425 155.061C69.3178 155.861 69.6931 156.661 70.0532 157.459C72.0486 161.971 73.7516 166.823 73.1283 171.703L73.1416 171.72Z" fill="#E98427"/>
<path d="M23.1435 132.794C24.1484 131.623 25.6285 130.963 27.0891 130.45C30.7254 129.168 34.5697 128.545 38.3948 127.949C46.2053 126.717 54.1033 125.526 61.9876 126.097C62.3095 126.122 62.6752 126.167 62.909 126.392C63.1162 126.583 63.1707 126.876 63.212 127.153C63.7372 130.593 62.3569 134.159 59.9749 136.742C57.5777 139.323 54.2644 140.976 50.8063 141.844C47.3501 142.696 43.728 142.805 40.1714 142.65C35.0603 142.423 29.8839 141.631 25.2938 139.435C22.641 138.172 20.9119 135.411 23.1416 132.809L23.1435 132.794Z" fill="#8D8A9E"/>
<path d="M25.8307 64.1138C25.9427 63.4948 26.091 62.8351 26.5911 62.445C26.9881 62.1326 27.5369 62.0801 28.0362 62.0516C38.8979 61.1678 48.6964 60.3631 59.5582 59.4793C57.1902 63.3748 57.1476 124.035 65.9506 148.226C59.245 152.729 51.3357 155.426 43.2369 156.14C39.1799 156.496 33.177 156.339 29.1838 155.498C25.2515 154.664 27.1362 152.095 26.3007 148.54C22.1233 130.769 21.0757 112.391 22.1691 94.2188C22.7782 84.1231 24.0616 74.0808 25.8612 64.1176L25.8307 64.1138Z" fill="#FFC90B"/>
<path d="M58.8044 152.072C56.8338 149.145 56.0046 143.769 55.2472 141.038C53.8287 135.905 52.8125 130.655 52.0611 125.394C51.1821 119.333 50.6347 113.222 50.2112 107.112C49.721 100.211 49.3718 93.2961 49.0225 86.3816C48.746 80.9227 48.4563 75.447 48.1798 69.9881C48.0122 66.7728 47.8637 63.5298 48.1724 60.3434C51.8978 60.0367 55.6537 59.7337 59.5506 59.4181C57.1826 63.3136 57.14 123.974 65.9431 148.165C63.6856 149.678 61.301 150.98 58.8177 152.089L58.8044 152.072Z" fill="#E9BB18"/>
<path d="M29.2905 68.0838C30.8106 68.1818 32.2529 67.3359 33.2368 66.2072C34.2207 65.0784 34.8051 63.6892 35.3724 62.313C34.9246 65.4972 38.1848 68.5081 41.4814 68.2839C44.776 68.0744 47.4904 65.0808 47.7401 61.872C48.0068 65.0393 51.7505 67.4321 54.8413 66.4138C57.1541 65.6608 58.6856 63.4246 59.2665 61.1158C59.8474 58.807 59.6227 56.3832 59.4511 54.0264C58.8131 45.1774 58.5645 38.4412 58.8225 34.9321C58.8499 34.604 48.9644 19.2746 44.4187 19.2235C43.9558 19.2113 41.5639 18.7943 41.1253 18.9508C40.2653 19.2511 29.2047 45.0787 26.5394 60.1181C26.0546 62.8758 24.3035 67.7369 29.3076 68.0708L29.2905 68.0838Z" fill="#FFDC97"/>
<path d="M44.6544 9.14171C45.2602 7.5894 45.9346 5.98535 47.5607 4.8006C49.1868 3.61586 52.0783 3.05509 53.9851 3.98459C55.6883 4.8135 55.974 6.41604 56.1135 7.83469C57.0196 16.8826 57.9125 25.9138 58.8186 34.9617C57.071 35.1821 55.824 33.2343 54.1597 33.6459C53.2962 33.8553 52.98 34.6147 52.1677 34.9058C51.1609 35.2632 49.958 34.7524 49.1591 34.2315C48.3469 33.6938 47.4377 33.0688 46.2963 33.1534C44.7642 33.2648 43.8274 34.6254 42.2995 34.5867C41.2365 34.5454 40.5523 33.8578 39.6921 33.4498C37.928 32.6134 36.1222 33.2786 34.5773 33.9611C34.4866 32.88 38.1526 25.5741 39.0784 23.2327C40.93 18.5499 42.7989 13.8542 44.6505 9.17137L44.6544 9.14171Z" fill="#ACA7C1"/>
<path d="M28.0164 136.969C34.2777 138.228 40.7876 137.468 47.0456 136.149C49.5293 135.628 51.9923 135.029 54.3757 134.209C56.1433 133.6 57.8807 132.866 59.2915 131.669C60.7004 130.488 61.76 128.781 61.7948 126.977C64.3099 130.83 64.5465 136.239 61.6591 139.844C60.4018 141.406 58.671 142.562 56.838 143.435C51.2551 146.103 44.8052 146.404 38.6009 146.012C35.6674 145.829 32.679 145.473 30.0414 144.212C27.8548 143.173 26.024 141.544 24.2924 139.868C23.5491 139.158 20.6766 135.788 22.8273 135.091C23.5861 134.853 24.487 135.779 25.0978 136.08C26.0151 136.526 27.0185 136.786 28.0144 136.984L28.0164 136.969Z" fill="#D2B3FC"/>
<path d="M51.1487 137.215C54.8648 136.033 58.6368 134.542 61.2803 131.735C62.6308 130.29 63.6741 128.235 62.9697 126.399C65.2386 136.038 68.8932 145.381 73.7669 154.047C74.2696 154.938 74.8009 155.848 74.8994 156.87C75.1734 159.39 72.85 161.407 70.6462 162.747C58.0268 170.434 40.1941 171.223 25.8862 167.204C24.8409 166.909 23.7007 166.511 23.2038 165.576C22.942 165.091 22.89 164.542 22.8532 163.995C22.1661 155.758 22.0221 135.563 22.0221 135.563C22.0221 135.563 22.8497 137.64 25.9472 138.581C29.9814 139.82 34.624 139.958 38.3987 139.748C42.7355 139.502 47.0151 138.511 51.1506 137.2L51.1487 137.215Z" fill="#D8BCFD"/>
<path d="M26.3677 146.017C36.155 149.084 46.9705 147.606 56.5585 144.033C58.5607 143.287 60.5461 142.433 62.2846 141.217C64.0232 140.001 65.4922 138.36 66.1961 136.413C68.9755 138.129 70.0007 142.008 68.4432 144.798C67.1287 147.152 64.4507 148.447 61.8611 149.422C51.5808 153.316 40.1793 154.419 29.3051 152.559C26.7151 152.118 23.9885 151.418 22.2364 149.543C20.5926 147.788 19.5367 143.196 21.9507 141.552C22.397 142.165 22.2614 143.082 22.637 143.762C23.3409 145.009 25.0446 145.597 26.3829 146.019L26.3677 146.017Z" fill="#C7A0FB"/>
<path d="M21.0485 145.961C22.0878 147.958 24.2319 149.203 26.3393 149.901C28.757 150.713 31.3913 150.934 33.9401 151.1C38.8986 151.428 43.872 151.05 48.7345 150.1C50.1012 149.833 51.4584 149.519 52.8063 149.159C54.1713 148.785 55.5155 148.334 56.8864 147.916C57.0789 147.865 57.1869 148.104 57.0057 148.187C54.7018 149.228 52.208 149.943 49.7337 150.511C47.2251 151.104 44.6654 151.495 42.0986 151.704C39.5471 151.915 36.9883 151.945 34.4224 151.792C33.148 151.71 31.8623 151.595 30.5995 151.424C29.2739 151.26 27.958 151.021 26.6767 150.636C25.3974 150.237 24.1737 149.648 23.1374 148.811C22.1695 148.043 21.4401 147.109 20.9341 146.007C20.8981 145.927 21.0125 145.881 21.0485 145.961Z" fill="#C2BAEE"/>
<path d="M23.6018 164.073C24.6774 165.201 26.2427 165.545 27.7145 165.894C29.3349 166.29 30.9802 166.615 32.6333 166.88C35.9375 167.425 39.2919 167.705 42.6527 167.7C46.0116 167.709 49.3768 167.433 52.6969 166.911C56.0018 166.386 59.3053 165.635 62.4933 164.584C66.0531 163.413 69.5772 162.041 72.5681 159.775C72.7055 159.672 72.8499 159.87 72.7277 159.976C71.4695 161.071 70.0252 161.931 68.5355 162.666C66.9962 163.424 65.4228 164.088 63.7982 164.67C60.5794 165.838 57.2698 166.754 53.8923 167.36C50.5148 167.966 47.0676 168.277 43.6248 168.318C40.182 168.358 36.7589 168.13 33.3594 167.603C31.6739 167.349 29.9829 167.019 28.3339 166.603C26.8792 166.242 25.2339 165.918 24.0607 164.943C23.7965 164.715 23.5951 164.479 23.4186 164.171C23.356 164.057 23.5372 163.974 23.6037 164.058L23.6018 164.073Z" fill="#CEC8F1"/>
<path d="M58.8011 35.0952C57.0535 35.3155 55.8065 33.3678 54.1422 33.7793C53.2787 33.9887 52.9625 34.7482 52.1502 35.0393C51.8737 35.1406 51.5916 35.1659 51.2983 35.1597C51.778 33.7424 52.0044 32.2486 52.1681 30.762C52.8499 24.4877 52.4727 18.1423 52.1048 11.8433C52.0374 10.5843 51.9073 9.21198 50.9854 8.32921C50.0787 7.44834 48.6062 7.34117 47.3728 7.65541C46.4444 7.88691 45.5994 8.30956 44.8475 8.84923C45.4186 7.44332 46.0983 6.0358 47.5698 4.96751C49.1959 3.78277 52.0874 3.22199 53.9942 4.15148C55.6974 4.9804 55.9831 6.58294 56.1226 8.0016C57.0287 17.0495 57.9216 26.0807 58.8277 35.1286L58.8011 35.0952Z" fill="#9390A5"/>
<path d="M29.2665 66.1369C28.7024 66.1876 28.091 66.1269 27.6746 65.7588C27.3286 65.4447 27.1888 64.9753 27.1251 64.5154C26.9568 63.1986 27.3467 61.8757 27.7461 60.5992C30.4051 52.1137 33.2736 43.6844 36.3648 35.3278C33.705 43.3461 31.0183 51.4514 30.2456 59.8391C30.1949 60.3452 30.1574 60.8679 30.3277 61.3411C30.4981 61.8143 30.9219 62.2435 31.4458 62.2633C32.2021 62.2817 32.6878 61.5282 33.0076 60.8596C33.561 59.7076 34.1296 58.5576 34.6829 57.4056C33.1741 60.5336 33.8781 65.6839 29.2684 66.1221L29.2665 66.1369Z" fill="#FFEBAB"/>
<path d="M37.0168 64.6565C35.5431 62.6656 35.803 59.9705 36.1974 57.5481C37.479 49.8864 39.6118 42.3454 42.5403 35.1139C41.7993 36.6343 41.4124 38.2891 41.0427 39.931C40.3839 42.9534 39.8145 46.002 39.3366 49.0619C38.7752 52.7594 38.3565 56.55 39.1499 60.1894C39.4476 61.5825 39.9738 63.0039 41.0575 63.9519C41.683 64.4965 42.549 64.86 43.3497 64.6579C44.6022 64.3159 45.0572 62.8504 45.3136 61.6014C44.9145 63.5861 44.7336 65.9144 42.4156 66.4709C40.4654 66.9374 38.1827 66.2777 37.0015 64.6546L37.0168 64.6565Z" fill="#FFEBAB"/>
<path d="M49.8623 63.5213C48.9072 62.1824 48.7132 60.4707 48.679 58.8391C48.6396 57.0109 48.8021 55.1776 48.9475 53.3573C49.3713 48.2263 49.7971 43.0804 50.2209 37.9494C49.947 45.7209 49.7489 53.6224 51.657 61.1671C51.9137 62.1633 52.2255 63.2115 53.0012 63.9104C53.7768 64.6093 55.129 64.807 55.8472 64.0522C54.1853 65.8654 51.2238 65.423 49.8643 63.5065L49.8623 63.5213Z" fill="#FFEBAB"/>
<path opacity="0.21" d="M30.4837 178.216C30.138 177.782 29.8211 177.245 29.9214 176.715C30.0564 176.039 30.8347 175.653 31.5281 175.679C32.2215 175.704 32.8742 176.041 33.5003 176.345C38.7525 178.925 44.6076 180.329 50.4964 180.411C51.6566 180.419 52.8665 180.403 53.9247 180.835C54.0688 181.155 53.5919 181.367 53.2451 181.414C49.0354 181.872 44.7922 181.994 40.5784 181.773C36.6733 181.56 33.0612 181.474 30.4817 178.231L30.4837 178.216Z" fill="#F6AD69"/>
<path d="M61.3102 83.6719C62.3894 86.1726 62.2439 89.0592 61.8467 91.7877C61.4108 94.7246 60.6118 97.7361 58.7817 100.044C56.9372 102.347 53.839 103.75 51.167 102.765C49.7971 102.254 48.679 101.191 47.8901 99.9174C47.1011 98.6436 46.6317 97.1868 46.2979 95.7098C45.6446 92.7602 45.5046 89.673 45.9212 86.6511C46.0955 85.3818 46.3668 84.1114 46.9429 82.9846C48.3518 80.2602 51.4355 78.9472 54.2479 79.4722C55.5791 79.7189 56.9829 79.6574 58.227 80.3023C59.5823 80.9981 60.6859 82.2451 61.3053 83.6861L61.3102 83.6719Z" fill="#FFF3E9"/>
<path d="M45.8601 86.6406C46.0345 85.3709 46.3058 84.1003 46.8822 82.9732C47.4005 81.9697 48.1463 81.1485 49.0423 80.548C48.8825 80.7815 48.7372 81.0195 48.6064 81.2621C48.03 82.3892 47.7587 83.6598 47.5843 84.9295C47.1676 87.9521 47.3078 91.0401 47.9613 93.9904C48.2954 95.4679 48.765 96.9251 49.5543 98.1992C50.3436 99.4734 51.4574 100.55 52.8328 101.047C54.8328 101.789 57.0993 101.179 58.8719 99.8464C58.8187 99.9084 58.7848 99.9608 58.7315 100.023C56.8862 102.327 53.7866 103.73 51.1134 102.744C49.7429 102.233 48.6243 101.17 47.835 99.8961C47.0457 98.6219 46.576 97.1648 46.242 95.6873C45.5884 92.737 45.4482 89.649 45.8649 86.6264L45.8601 86.6406Z" fill="#FFE7C0"/>
<path d="M61.9443 91.2872C58.1121 89.2705 53.5706 88.3434 49.262 89.1991C48.0525 89.4345 46.8139 89.8506 46.0074 90.7514C45.9493 89.7835 45.93 88.7487 46.4546 87.9173C46.9259 87.1956 47.7468 86.7742 48.5823 86.4999C50.1222 86.0047 51.7737 85.9405 53.4008 86.0426C55.0086 86.1544 56.6261 86.4276 58.1464 86.9391C58.9187 87.1829 59.6472 87.5078 60.3612 87.8756C60.9198 88.1785 61.862 88.5867 62.1631 89.1723C62.2894 89.4179 62.2117 89.6466 62.1728 89.9033C62.0853 90.3505 62.0221 90.8211 61.9492 91.2729L61.9443 91.2872Z" fill="#FFE7C0"/>
<path d="M58.9293 88.5843C59.3407 89.6917 59.3599 90.9118 59.2291 92.1004C59.0643 93.6724 58.6382 95.3039 57.6118 96.4778C56.5854 97.6518 54.8135 98.2278 53.4919 97.4796C53.0756 97.2379 52.7174 96.8725 52.4125 96.4925C50.941 94.6248 50.4668 91.9524 51.198 89.6131C51.5467 88.4933 52.1955 87.4367 53.1395 86.7886C55.1487 85.4202 58.0629 86.3084 58.9293 88.5843Z" fill="#413E49"/>
<path d="M57.9125 90.751C57.898 91.0777 57.8398 91.4379 57.5975 91.6297C57.4473 91.74 57.2584 91.775 57.0742 91.7485C56.4589 91.7121 55.9502 91.2203 55.5772 90.7082C55.1072 90.0551 54.7681 89.3013 54.6907 88.4881C54.5744 87.221 55.7373 86.4521 56.7741 87.1894C57.6656 87.8335 57.9368 89.6859 57.9173 90.7367L57.9125 90.751Z" fill="white"/>
<path d="M62.0486 84.4073C61.3306 82.6326 60.1322 80.9907 58.4873 79.9031C57.0948 78.974 55.4257 78.4789 53.7566 78.2682C52.1942 78.0754 50.5251 78.1491 49.1373 78.8644C47.7544 79.5654 46.7548 80.8455 46.1677 82.24C45.5805 83.6344 45.3572 85.1437 45.2359 86.6377C45.1485 87.7475 45.1388 87.9656 45.0853 89.0703C46.7303 88.0254 48.8264 87.8811 51.0438 87.8067C55.3768 87.6732 59.1226 88.6971 62.8101 90.84C62.7131 90.367 62.9606 88.4547 62.8927 87.8962C62.7521 86.6986 62.4901 85.526 62.034 84.4027L62.0486 84.4073Z" fill="#E9BB18"/>
<path d="M46.1604 82.2638C46.7438 80.874 47.7319 79.6121 49.1098 78.8985C49.7698 78.5562 50.4876 78.3738 51.2246 78.2762C49.9864 79.0025 49.0899 80.1832 48.5547 81.4781C47.9712 82.8679 47.7489 84.372 47.6278 85.8608C47.5406 86.9195 47.5261 87.1511 47.4919 88.1478C46.6296 88.3317 45.8155 88.6096 45.0976 89.0753C45.1414 87.9556 45.1463 87.7525 45.248 86.6511C45.3691 85.1623 45.5914 83.6583 46.1748 82.2684L46.1604 82.2638Z" fill="#FFA910"/>
<path opacity="0.3" d="M59.7953 82.5505C60.8385 83.8433 61.542 85.4239 61.673 87.0766C61.6875 87.2707 61.6147 87.5321 61.4303 87.5055C61.3236 87.4876 61.2605 87.3888 61.2071 87.3087C59.737 84.6648 58.2572 81.8598 55.7438 80.1031C55.5351 79.9583 55.2586 79.7763 55.2731 79.4965C56.1708 79.2742 57.0345 80.0523 57.6895 80.5433C58.4756 81.1231 59.1985 81.7935 59.7953 82.5505Z" fill="white"/>
<path d="M33.0287 82.6227C34.3907 84.7856 34.7004 87.4718 34.7425 90.0376C34.7818 92.7988 34.5078 95.6823 33.1754 98.0382C31.843 100.394 29.1836 102.087 26.5937 101.524C25.2602 101.236 24.074 100.385 23.1497 99.3249C22.2254 98.2643 21.5924 96.9775 21.0642 95.6549C20.0088 93.0246 19.4294 90.188 19.3549 87.3537C19.3248 86.1689 19.3853 84.9642 19.742 83.8483C20.6246 81.1566 23.2593 79.5551 25.9271 79.6639C27.1843 79.7149 28.47 79.4941 29.7055 79.9218C31.0505 80.3886 32.2625 81.4033 33.0449 82.6369L33.0287 82.6227Z" fill="#FFF3E9"/>
<path d="M19.287 87.3587C19.257 86.1741 19.3174 84.9695 19.674 83.8538C19.9926 82.8602 20.5654 82.0179 21.2868 81.3476C21.1793 81.5787 21.0718 81.8099 20.9967 82.0693C20.6401 83.185 20.5797 84.3896 20.6097 85.5742C20.6841 88.408 21.2784 91.2434 22.3182 93.874C22.8462 95.1964 23.4942 96.4822 24.4029 97.5434C25.3117 98.6046 26.5126 99.4545 27.8457 99.7417C29.7986 100.16 31.7777 99.3153 33.1977 97.8558C33.171 97.9173 33.1292 97.9797 33.1025 98.0412C31.7705 100.397 29.112 102.09 26.523 101.526C25.1899 101.239 24.0042 100.388 23.0802 99.3279C22.1705 98.2517 21.5235 96.9809 20.9955 95.6585C19.9405 93.0287 19.3614 90.1925 19.287 87.3587Z" fill="#FFE7C0"/>
<path d="M34.7844 89.5697C30.9494 88.1955 26.6477 87.9342 22.8171 89.2778C21.7506 89.6536 20.6641 90.1967 20.0636 91.1358C19.8692 90.2556 19.6844 89.2843 20.0468 88.464C20.369 87.7365 21.0585 87.2304 21.7883 86.8731C23.1282 86.2103 24.6472 85.9454 26.1451 85.8327C27.643 85.72 29.1668 85.7719 30.6428 86.0379C31.3889 86.178 32.1073 86.3649 32.8152 86.6279C33.3815 86.8383 34.3037 87.0895 34.674 87.5977C34.8252 87.8007 34.7937 88.029 34.7937 88.2706C34.7747 88.6944 34.7872 89.1317 34.7988 89.5538L34.7844 89.5697Z" fill="#FFE7C0"/>
<path d="M31.5707 87.4435C32.1217 88.4045 32.3165 89.5353 32.3875 90.6428C32.4815 92.1095 32.3364 93.6645 31.5578 94.8788C30.7943 96.0922 29.2524 96.8528 27.9348 96.3394C27.5108 96.1674 27.1411 95.8873 26.7999 95.5756C25.157 94.0438 24.3148 91.6419 24.6453 89.4009C24.8058 88.3257 25.2273 87.2662 26.0072 86.5475C27.6383 85.0311 30.4648 85.4616 31.5869 87.4576L31.5707 87.4435Z" fill="#413E49"/>
<path d="M31.0031 89.5683C31.0375 89.8668 31.0443 90.2119 30.8434 90.4182C30.7292 90.5447 30.5482 90.5846 30.3805 90.5938C29.8013 90.6257 29.2734 90.2641 28.8483 89.8369C28.3241 89.2949 27.8846 88.6431 27.6994 87.9023C27.4112 86.7466 28.3502 85.8839 29.4107 86.4415C30.3293 86.9318 30.8645 88.5996 30.9869 89.5542L31.0031 89.5683Z" fill="white"/>
<path d="M33.8746 83.212C32.9474 81.6672 31.6028 80.3109 29.9262 79.5147C28.5027 78.8402 26.9075 78.5965 25.3296 78.6228C23.8587 78.6433 22.344 78.9371 21.1706 79.7692C20.0124 80.6004 19.2834 81.9048 18.9564 83.2625C18.6295 84.6201 18.6589 86.0335 18.7647 87.4427C18.8464 88.4769 18.8742 88.671 19.0017 89.7027C20.3526 88.5297 22.2589 88.1241 24.2759 87.7726C28.2346 87.0889 31.8376 87.5536 35.5376 89.0517C35.3721 88.6242 35.3187 86.8358 35.179 86.3317C34.8795 85.2492 34.4434 84.1893 33.8594 83.2128L33.8746 83.212Z" fill="#E9BB18"/>
<path d="M18.9493 83.3271C19.275 81.9736 20.0009 80.6731 21.1536 79.8442C21.7086 79.4535 22.3473 79.1782 23.0068 78.9917C21.9758 79.8139 21.3364 81.0346 21.0202 82.2976C20.6945 83.6511 20.7233 85.06 20.8282 86.4648C20.9063 87.4509 20.9359 87.6744 21.0397 88.584C20.2642 88.8669 19.5704 89.2353 18.9774 89.7481C18.8508 88.7197 18.8232 88.5262 18.7421 87.4952C18.6382 86.1054 18.5932 84.6823 18.9341 83.3279L18.9493 83.3271Z" fill="#FFA910"/>
<path opacity="0.3" d="M31.5427 81.7723C32.6981 82.8362 33.581 84.1855 33.9375 85.684C33.9795 85.862 33.9653 86.1183 33.766 86.1142C33.6745 86.1193 33.5924 86.0336 33.5418 85.9612C31.7897 83.7126 30.0138 81.3301 27.4506 80.0429C27.2446 79.934 26.9603 79.7993 26.9287 79.5455C27.7048 79.2324 28.6321 79.8428 29.2979 80.1971C30.1069 80.6337 30.8596 81.1485 31.5427 81.7723Z" fill="white"/>
<path d="M48.6737 72.3546C48.7754 72.0508 49.122 72.1239 49.3865 72.232C52.7344 73.6264 56.038 75.2414 59.2781 77.1046C59.5521 77.2591 59.8241 77.4285 60.0368 77.6959C60.2496 77.9634 60.3667 78.3697 60.2611 78.7032C60.1287 79.1238 59.6979 79.221 59.3264 79.2202C57.3145 79.2119 55.3493 78.019 53.5115 76.9173C52.5926 76.3664 51.7272 75.7619 50.8983 74.9961C50.636 74.7526 48.5623 72.7326 48.687 72.3713L48.6737 72.3546Z" fill="#AA5F1B"/>
<path d="M28.0335 71.5939C27.9332 71.2951 27.5844 71.3574 27.3231 71.4606C23.9799 72.8695 20.6838 74.5103 17.4672 76.3718C17.1982 76.5344 16.9139 76.695 16.7094 76.956C16.503 77.2318 16.3725 77.6375 16.4841 77.9678C16.6298 78.3927 17.0525 78.4752 17.424 78.4761C19.4378 78.4695 21.3936 77.2503 23.2252 76.1513C24.1334 75.6009 25.0037 74.9854 25.8171 74.2123C26.0826 73.9589 28.1431 71.939 28.0202 71.5772L28.0335 71.5939Z" fill="#AA5F1B"/>
<path d="M50.2092 109.335C50.0507 110.932 49.6992 113.075 49.3257 114.632C48.7625 117.033 47.9003 119.463 46.2003 121.291C44.5002 123.119 41.8035 124.241 39.3743 123.547C38.0787 123.181 36.9606 122.329 36.0417 121.372C32.7744 117.963 31.6337 113.023 31.938 108.383L50.2061 109.347L50.2092 109.335Z" fill="#413E49"/>
</g>
<defs>
<clipPath id="clip0_48_936">
<rect width="103.1" height="180.08" fill="white" transform="matrix(0.992406 0.123009 0.129779 -0.991543 0.29126 178.557)"/>
</clipPath>
</defs>
</svg>
