<svg width="79" height="186" viewBox="0 0 79 186" fill="none" xmlns="http://www.w3.org/2000/svg">
<path d="M51.5081 29.6976C50.2522 24.4604 48.8022 19.2538 47.1886 14.1156C46.3056 11.2953 45.3504 8.50168 44.3589 5.72136C43.9898 4.6747 43.5578 3.56904 42.7015 2.84968C42.2409 2.46907 41.6244 2.24451 41.0497 2.26733C40.4616 2.254 39.8489 2.46332 39.3902 2.84582C38.5319 3.54802 38.098 4.64414 37.7041 5.6927C36.6688 8.45586 35.7001 11.2438 34.7809 14.0545C33.1024 19.1736 31.5913 24.3459 30.2648 29.5735C29.1819 33.8572 26.961 38.864 28.8563 43.1838C29.6708 45.0602 30.98 46.6968 32.4111 48.1736C33.3435 49.1441 34.3654 50.09 35.5872 50.6419C36.8089 51.1938 38.3237 51.2927 39.4921 50.6077C40.0478 50.288 40.4627 49.8313 40.7824 49.2946C41.104 49.8332 41.5208 50.2956 42.0574 50.6153C43.2106 51.3157 44.7102 51.2396 45.9491 50.701C47.1879 50.1625 48.2099 49.2358 49.1652 48.2843C50.6115 46.8152 51.9341 45.2109 52.7848 43.3289C54.7184 39.0357 52.5719 34.0117 51.5424 29.7014L51.5081 29.6976Z" fill="#FF5A27"/>
<path d="M52.7506 43.3251C54.6841 39.0319 52.5376 34.0079 51.5082 29.6976C50.2523 24.4604 48.8023 19.2538 47.1886 14.1156C46.3056 11.2953 45.3504 8.50167 44.359 5.72135C43.9898 4.67469 43.5578 3.56903 42.7015 2.84967C42.241 2.46906 41.6244 2.2445 41.0497 2.26732C40.8955 2.25019 40.7357 2.28445 40.5777 2.30157C41.3332 2.83633 41.9669 3.53094 42.4902 4.28264C43.8318 6.25228 44.4008 8.62155 44.8346 10.9585C45.4607 14.3744 45.8564 17.8341 45.9896 21.3166C46.1665 25.6536 45.9285 30.1352 44.151 34.1162C43.2756 36.0649 41.9568 37.947 40.0347 38.8604C37.6921 39.9698 34.9556 39.475 32.4113 38.9668C32.3427 40.6757 33.4483 42.2724 34.8509 43.2258C36.2534 44.1792 37.9527 44.6455 39.6026 45.0889C42.0461 45.7246 44.5238 46.364 47.0434 46.4706C48.3888 46.5335 49.7362 46.4231 51.0378 46.0996C51.7058 45.2376 52.2958 44.2975 52.7525 43.3079L52.7506 43.3251Z" fill="#FF5A27"/>
<path d="M40.6511 66.3932L13.6264 65.0892L20.5667 175.666L31.0027 182.235L40.2209 182.289L49.4562 182.344L59.9667 175.918L67.6853 65.427L40.6511 66.3932Z" fill="#FF5A27"/>
<path d="M49.4559 182.344L55.54 65.343L67.744 65.3642L59.9663 175.918L49.4559 182.344Z" fill="#FF5A27"/>
<path d="M31.0026 182.235L26.7856 68.5281L23.9349 69.8412L25.8169 178.971L31.0026 182.235Z" fill="#FF7336"/>
<path d="M67.7443 65.3642L53.2514 36.9481L53.2172 36.9443C53.2019 37.5495 53.063 38.1755 52.8213 38.6342C52.2352 39.8521 50.6385 40.4896 49.3331 40.3792C48.629 40.3183 48.1228 40.0366 47.5804 39.6122C47.3273 39.3934 46.9734 38.9899 46.6289 38.969C46.2845 38.948 45.9324 39.3077 45.6393 39.4485C44.7011 39.9338 43.5669 39.6864 42.8134 38.9784C41.5954 39.9528 40.3489 40.8719 38.7028 40.8624C37.3155 40.8642 36.1452 40.162 35.4753 39.0126C34.0386 39.7718 32.3601 40.0535 30.8282 39.3284C29.9071 38.8793 28.7939 37.9753 28.4247 36.9286L13.6682 65.0245L13.7843 65.0721C13.7653 65.2433 13.7463 65.4146 13.7444 65.5878C14.0088 68.3567 16.0184 71.0247 18.4904 72.1837C21.1926 73.455 24.5933 73.122 26.9949 71.3256C27.1814 72.7681 28.4754 73.7615 29.7295 74.4904C33.7696 76.8292 38.4757 78.1671 43.1191 77.7295C47.7624 77.2919 52.305 74.9532 54.9521 71.1034C55.4964 72.447 57.1672 72.8581 58.6192 72.898C60.5393 72.938 62.5033 72.5841 64.1722 71.6079C65.8241 70.6298 67.337 67.3128 67.651 65.4232C67.651 65.4232 67.651 65.4232 67.6016 65.4003L67.71 65.3604L67.7443 65.3642Z" fill="#FFCE80"/>
<path d="M67.6852 65.427C67.6852 65.427 67.6852 65.427 67.6358 65.4041L67.7442 65.3642L53.2514 36.9481L53.2171 36.9443C53.2019 37.5495 53.063 38.1755 52.8213 38.6342C52.2351 39.8521 50.6385 40.4896 49.333 40.3792C48.6289 40.3183 48.1227 40.0366 47.5803 39.6122C47.3272 39.3934 46.9733 38.9899 46.6288 38.969C46.6288 38.969 46.5946 38.9652 46.5775 38.9633C47.2416 40.3201 47.9209 41.54 48.2635 42.3583C50.3224 47.3899 51.7801 52.6841 52.5868 58.062C53.0645 61.2534 53.2966 64.6255 52.13 67.6342C50.6627 71.4764 47.0811 74.2166 43.2313 75.6267C40.9724 76.4507 38.6184 76.8826 36.213 77.1528C38.4719 77.7333 40.824 77.9426 43.1533 77.7333C47.7966 77.2957 52.3392 74.957 54.9863 71.1072C55.5306 72.4508 57.2014 72.8619 58.6534 72.9018C60.5735 72.9418 62.5375 72.5879 64.2064 71.6117C65.8583 70.6336 67.3712 67.3167 67.6852 65.427Z" fill="#FFBE71"/>
<path opacity="0.31" d="M27.0921 58.7486C26.4698 60.604 25.8228 62.526 24.5477 64.0142C22.4163 66.4995 18.5779 67.3386 15.5921 65.9665C16.848 68.3948 18.8937 70.8935 21.6208 70.8497C23.0975 70.8231 24.4715 70.0048 25.4611 68.9011C26.4507 67.7974 27.0711 66.4272 27.6058 65.0476C29.214 60.8743 29.9676 56.4327 30.7175 52.0253C30.7385 49.028 31.8023 45.6959 32.3048 42.7348C31.2885 48.1355 28.8164 53.5305 27.0921 58.7486Z" fill="white"/>
<path opacity="0.31" d="M40.6984 74.0795C44.5995 73.9235 48.5598 71.208 49.498 66.9776C49.8406 65.4552 49.774 63.87 49.6713 62.2981C49.3269 56.9715 48.4954 51.6602 47.1976 46.4878C47.445 49.5669 48.0273 52.5965 48.3279 55.6641C48.6285 58.7318 48.6589 61.8908 47.8482 64.8176C47.0374 67.7445 45.2657 70.4258 42.7575 71.6208C40.2493 72.8159 37.0008 72.2468 35.2197 69.8642C35.7106 71.0631 35.9047 72.281 36.8733 73.0822C37.9219 73.9443 39.4443 74.1308 40.6812 74.0776L40.6984 74.0795Z" fill="white"/>
<path opacity="0.22" d="M39.0669 5.44534C37.4721 8.56245 36.589 11.9841 35.7421 15.3923C34.545 20.2355 33.3822 25.0824 32.2517 29.9503C31.9853 31.0998 31.7188 32.2492 31.6065 33.4157C31.5742 33.7069 31.5875 34.0551 31.8292 34.2207C32.2497 34.4928 32.6779 33.9162 32.834 33.4481C35.367 26.1006 37.0152 18.4467 39.8831 11.2058C40.534 9.56159 41.2591 7.87363 41.2344 6.06767C41.2173 4.34925 39.9765 3.65653 39.0497 5.44344L39.0669 5.44534Z" fill="white"/>
<path d="M36.1477 114.562C38.2486 116.096 41.0898 116.585 43.5009 115.639C45.912 114.694 47.7732 112.456 48.3156 109.915C47.6114 114.068 46.8977 118.306 45.1203 122.131C44.458 123.566 43.5902 124.978 42.279 125.855C40.9659 126.749 39.12 126.978 37.8183 126.053C37.0781 125.537 36.6137 124.722 36.1989 123.931C33.668 119.246 31.8279 113.649 31.4664 108.32C32.0182 109.439 33.7233 112.819 36.1286 114.577L36.1477 114.562Z" fill="#413E49"/>
<path d="M19.1924 77.0992C18.7604 77.554 18.3665 78.1344 18.435 78.7662C18.4483 78.9584 18.513 79.1563 18.6557 79.2762C18.8765 79.4741 19.2076 79.4589 19.4607 79.3657C19.7157 79.2553 19.9308 79.0365 20.142 78.8519C21.7996 77.3542 24.0147 76.456 26.2583 76.3933C26.5533 76.3914 26.8654 76.3914 27.1413 76.2487C27.5277 76.0489 27.737 75.5693 27.6095 75.1563C27.227 73.9175 24.3059 74.4598 23.3962 74.6881C21.7939 75.0649 20.3133 75.906 19.1905 77.1163L19.1924 77.0992Z" fill="#413E49"/>
<path d="M61.4984 76.9458C61.9151 77.4083 62.3014 77.9887 62.2329 78.6053C62.212 78.7937 62.1377 78.9935 62.0026 79.1172C61.7914 79.3018 61.445 79.2979 61.1976 79.1838C60.9503 79.0696 60.7314 78.8545 60.5278 78.6585C58.876 77.1399 56.6895 76.2207 54.4458 76.1274C54.1527 76.1122 53.8235 76.1103 53.5609 75.977C53.1841 75.7791 52.9786 75.2881 53.1099 74.8866C53.5077 73.6477 56.425 74.232 57.3346 74.4718C58.9198 74.8734 60.4022 75.7317 61.5155 76.9477L61.4984 76.9458Z" fill="#413E49"/>
<path d="M33.9271 86.487C35.3371 88.9324 35.5769 91.9239 35.5045 94.7594C35.4398 97.8385 35.0344 101.018 33.5005 103.587C31.9666 106.156 29.0074 107.978 26.1909 107.266C24.758 106.899 23.4792 105.924 22.522 104.708C21.5648 103.492 20.9102 102.05 20.3812 100.569C19.3403 97.6098 18.8075 94.447 18.8266 91.3108C18.8342 89.994 18.9484 88.6542 19.3785 87.4363C20.4366 84.4676 23.3654 82.7645 26.2732 82.9662C27.6491 83.0671 29.0611 82.8426 30.3742 83.3526C31.8376 83.914 33.0974 85.0597 33.9118 86.4679L33.9271 86.487Z" fill="#FFF3E9"/>
<path d="M18.7732 91.3223C18.7808 90.0054 18.895 88.6657 19.3251 87.4477C19.7247 86.3478 20.3642 85.4306 21.173 84.7055C21.0417 84.951 20.9256 85.2155 20.8247 85.4991C20.3927 86.7341 20.2804 88.0567 20.2709 89.3907C20.2499 92.544 20.7827 95.7068 21.8255 98.6489C22.3545 100.129 23.0091 101.572 23.9663 102.788C24.9235 104.004 26.1852 104.977 27.6352 105.346C29.7438 105.875 31.9399 104.992 33.5537 103.42C33.5118 103.485 33.4871 103.551 33.4452 103.616C31.8923 106.2 28.9521 108.006 26.1356 107.294C24.7027 106.927 23.4239 105.953 22.4667 104.737C21.5095 103.521 20.8549 102.078 20.3259 100.598C19.285 97.6384 18.7522 94.4756 18.7713 91.3394L18.7732 91.3223Z" fill="#FFE7C0"/>
<path d="M35.4702 92.2588C30.8783 89.1131 26.2768 89.7981 22.5754 92.2129C21.2299 93.0864 20.3146 94.7705 19.6275 95.8039C19.443 94.8124 19.0834 91.4954 19.5135 90.5896C19.896 89.7999 20.6667 89.2613 21.4527 88.8979C22.9332 88.2128 24.5907 87.9635 26.2121 87.8836C27.8506 87.8056 29.4872 87.9008 31.0781 88.251C31.8736 88.4261 32.6633 88.6526 33.4264 88.9628C34.0411 89.2045 35.0307 89.5052 35.3998 90.0837C35.5464 90.3254 35.5197 90.5651 35.4893 90.8392C35.4531 91.3206 35.4531 91.7888 35.436 92.255L35.4702 92.2588Z" fill="#FFE7C0"/>
<path d="M34.8919 92.628C35.2839 93.7813 35.2458 95.0601 35.0935 96.2742C34.8785 97.8975 34.3989 99.5607 33.3313 100.742C32.2465 101.922 30.4367 102.449 29.1256 101.61C28.705 101.338 28.3663 100.954 28.0656 100.539C26.6232 98.5406 26.2388 95.7584 27.0419 93.3682C27.4302 92.215 28.121 91.1474 29.0915 90.527C31.1639 89.1968 34.1003 90.234 34.8919 92.628Z" fill="#413E49"/>
<path d="M33.8168 94.8146C33.7978 95.1419 33.7369 95.5339 33.4742 95.7128C33.3239 95.8175 33.1298 95.8479 32.9414 95.827C32.3077 95.7566 31.8281 95.2351 31.4552 94.6909C30.9946 93.9981 30.6845 93.2008 30.6388 92.3634C30.5589 91.0542 31.7711 90.2873 32.7892 91.1113C33.6646 91.8154 33.9006 93.7489 33.8339 94.8165L33.8168 94.8146Z" fill="white"/>
<path d="M34.7719 87.153C33.8224 85.4004 32.4142 83.8741 30.6273 82.9473C29.103 82.1537 27.3693 81.8397 25.6547 81.8225C24.0619 81.8016 22.4005 82.0851 21.1065 82.9643C19.8124 83.8435 18.977 85.2764 18.5697 86.7569C18.1605 88.2546 18.1415 89.8303 18.2118 91.3813C18.2575 92.5307 18.286 92.7419 18.3831 93.897C19.8922 92.643 20.8019 90.5421 25.1103 88.9056C29.2018 87.349 35.0631 87.6535 36.0716 93.4007C35.9003 92.9135 36.0222 91.1932 35.8947 90.6242C35.613 89.4138 35.3771 88.2606 34.7891 87.155L34.7719 87.153Z" fill="#FF8243"/>
<path d="M18.5641 86.8083C18.9733 85.3107 19.8068 83.8948 21.1009 83.0157C21.7193 82.5989 22.4273 82.3135 23.158 82.1346C22.001 83.029 21.2474 84.3497 20.8667 85.7465C20.4576 87.2442 20.4385 88.8199 20.5089 90.3708C20.5603 91.4689 20.4727 90.6962 20.585 91.7143C19.8124 92.27 19.0454 93.3985 18.3756 93.9656C18.2785 92.8104 18.25 92.5992 18.2043 91.4498C18.1339 89.8988 18.153 88.3231 18.5622 86.8255L18.5641 86.8083Z" fill="#FF5A27"/>
<path opacity="0.3" d="M32.2674 85.0368C33.472 86.055 34.3874 87.3357 34.7165 88.7421C34.7508 88.9019 34.707 89.1398 34.5167 89.136C34.414 89.1246 34.334 89.0637 34.2731 88.9875C32.4634 86.8618 30.6347 84.5953 27.8962 83.3374C27.666 83.2251 27.3843 83.1071 27.3425 82.8597C28.2064 82.5743 29.1808 83.168 29.9039 83.5258C30.7584 83.9502 31.5709 84.4393 32.2674 85.0368Z" fill="white"/>
<path d="M62.9899 88.4857C63.7111 91.2013 63.1744 94.1586 62.3675 96.8951C61.5016 99.8505 60.3045 102.821 58.1312 104.903C55.958 106.985 52.6581 107.97 50.1271 106.562C48.8198 105.845 47.8512 104.575 47.2479 103.139C46.6428 101.719 46.384 100.147 46.2623 98.5904C46.0206 95.46 46.3233 92.2686 47.1625 89.2409C47.5127 87.9621 47.9638 86.7118 48.7079 85.6328C50.5043 83.041 53.7737 82.1732 56.5293 83.121C57.8309 83.5777 59.2354 83.7338 60.3905 84.5731C61.6579 85.4941 62.5732 86.9309 63.0052 88.5047L62.9899 88.4857Z" fill="#FFF3E9"/>
<path d="M47.111 89.2352C47.4612 87.9564 47.9122 86.7061 48.6563 85.6271C49.3167 84.6775 50.1787 83.9411 51.1512 83.4596C50.9552 83.6633 50.7744 83.8859 50.6088 84.1276C49.8647 85.2066 49.4137 86.4569 49.0635 87.7357C48.2223 90.7805 47.9216 93.9547 48.1632 97.0852C48.2831 98.659 48.5438 100.214 49.1489 101.633C49.754 103.053 50.7226 104.322 52.03 105.04C53.9235 106.1 56.2794 105.807 58.2395 104.707C58.1825 104.753 58.1406 104.817 58.0835 104.863C55.9102 106.945 52.6104 107.931 50.0794 106.522C48.772 105.805 47.8034 104.535 47.1983 103.116C46.5932 101.696 46.3344 100.124 46.2126 98.5676C45.971 95.4371 46.2736 92.2458 47.1129 89.2181L47.111 89.2352Z" fill="#FFE7C0"/>
<path d="M62.9858 94.4498C59.3645 90.2155 54.7592 89.6864 50.5497 91.0565C49.0216 91.5455 47.7047 92.9423 46.7646 93.7568C46.8407 92.7596 47.3641 89.4541 48.0206 88.6948C48.5973 88.0306 49.4822 87.7129 50.3309 87.5644C51.9409 87.2752 53.6022 87.4598 55.1931 87.81C56.784 88.1602 58.3559 88.6817 59.7984 89.4315C60.5196 89.8064 61.218 90.2308 61.8746 90.7198C62.4036 91.1081 63.2771 91.6733 63.4826 92.3203C63.5739 92.5905 63.4616 92.8208 63.3817 93.072C63.2275 93.523 63.1077 93.9778 62.9706 94.4307L62.9858 94.4498Z" fill="#FFE7C0"/>
<path d="M61.9848 94.2518C62.1104 95.4621 61.8173 96.6953 61.3929 97.8618C60.841 99.3957 60.0113 100.933 58.7134 101.847C57.4155 102.76 55.5277 102.897 54.4354 101.805C54.0758 101.453 53.8303 101.009 53.6228 100.535C52.6428 98.2765 52.8503 95.4734 54.1482 93.3116C54.7667 92.2707 55.6649 91.3648 56.7668 90.9671C59.0809 90.1146 61.7089 91.7417 61.9848 94.2518Z" fill="#413E49"/>
<path d="M60.4721 96.1644C60.3845 96.4841 60.2418 96.8323 59.9316 96.9712C59.7508 97.0378 59.5624 97.0169 59.3949 96.9636C58.7936 96.7581 58.4282 96.1453 58.1827 95.5458C57.8859 94.7846 57.7394 93.9187 57.8669 93.0833C58.08 91.7893 59.4007 91.2945 60.2228 92.3222C60.9403 93.1995 60.7423 95.1367 60.4549 96.1625L60.4721 96.1644Z" fill="white"/>
<path d="M63.6406 89.3382C63.1782 87.4143 62.2058 85.555 60.7272 84.1943C59.4674 83.0487 57.8708 82.2818 56.2228 81.8212C54.6756 81.3892 53.0124 81.2217 51.5147 81.7488C50.0361 82.2607 48.8657 83.431 48.0759 84.765C47.2861 86.099 46.8579 87.6119 46.5325 89.1362C46.2851 90.2704 46.2451 90.474 46.0491 91.6139C47.8398 90.79 49.2519 89.005 53.8458 88.5445C58.1942 88.1088 63.7662 89.9244 63.2599 95.7286C63.2294 95.2224 63.7928 93.5858 63.8061 92.9977C63.8404 91.7532 63.9355 90.5847 63.6368 89.3725L63.6406 89.3382Z" fill="#FF8243"/>
<path d="M48.072 84.7993C48.8618 83.4653 50.0303 82.3121 51.5108 81.7831C52.2149 81.5319 52.9704 81.4424 53.7316 81.4577C52.3862 82.019 51.3129 83.0961 50.584 84.3502C49.7942 85.6842 49.366 87.1971 49.0406 88.7214C48.8008 89.7871 48.9359 89.0392 48.7551 90.0421C47.8683 90.377 46.8159 91.2657 46.03 91.6292C46.226 90.4893 46.266 90.2856 46.5134 89.1514C46.8559 87.629 47.2842 86.1162 48.0568 84.7803L48.072 84.7993Z" fill="#FF5A27"/>
<path opacity="0.3" d="M61.7548 86.6493C62.6511 87.9452 63.1992 89.4106 63.1592 90.8626C63.1401 91.0338 63.0469 91.2489 62.8623 91.1937C62.7595 91.1823 62.7025 91.0719 62.6606 90.9805C61.4674 88.4552 60.2895 85.7929 57.9717 83.8708C57.7814 83.7109 57.5264 83.5092 57.5702 83.2713C58.476 83.2333 59.2695 84.0497 59.8709 84.5673C60.5978 85.2029 61.2334 85.8804 61.7739 86.634L61.7548 86.6493Z" fill="white"/>
</svg>
